<svg width="1071" height="749" viewBox="0 0 1071 749" fill="none" xmlns="http://www.w3.org/2000/svg">
<rect width="1071" height="749" fill="#E5E5E5"/>
<rect width="1071" height="749" fill="white"/>
<g opacity="0.2">
<path opacity="0.2" d="M399.354 577.742C399.747 579.349 400.268 580.922 400.914 582.445C410.947 578.506 421.091 574.731 431.345 571.119C431.259 570.694 431.172 570.246 431.064 569.806C430.031 565.268 427.826 561.08 424.668 557.658C420.569 553.33 415.285 551.238 410.146 552.515C405.006 553.792 401.275 558.163 399.571 563.913C398.297 568.425 398.223 573.191 399.354 577.742V577.742Z" fill="#3F3D56"/>
<path opacity="0.2" d="M413.77 569.136C422.579 567.17 427.585 556.029 424.953 544.251C422.321 532.473 413.047 524.52 404.239 526.486C395.431 528.452 390.424 539.593 393.056 551.371C395.688 563.148 404.962 571.102 413.77 569.136Z" fill="#3F3D56"/>
<path opacity="0.2" d="M407.589 543.155C416.398 541.189 421.405 530.047 418.773 518.27C416.14 506.492 406.866 498.538 398.058 500.504C389.25 502.471 384.243 513.612 386.875 525.39C389.507 537.167 398.781 545.121 407.589 543.155Z" fill="#3F3D56"/>
<path opacity="0.2" d="M401.396 517.189C410.204 515.223 415.211 504.082 412.579 492.304C409.947 480.527 400.673 472.573 391.864 474.539C383.056 476.505 378.049 487.647 380.681 499.424C383.313 511.202 392.587 519.156 401.396 517.189Z" fill="#3F3D56"/>
<path opacity="0.2" d="M395.202 491.217C404.01 489.251 409.017 478.109 406.385 466.332C403.753 454.554 394.479 446.6 385.671 448.566C376.862 450.533 371.855 461.674 374.487 473.452C377.119 485.229 386.394 493.183 395.202 491.217Z" fill="#3F3D56"/>
<path opacity="0.2" d="M407.432 277.302C408.933 273.935 410.202 270.469 411.228 266.928L367.92 270.333L413.062 259.419C415.219 248.073 414.946 236.4 412.26 225.167C409.906 215.224 405.686 205.817 399.824 197.445L346.987 244.659L392.728 188.774C374.055 168.849 345.811 159.37 317.739 166.411C275.795 176.893 250.091 220.204 260.326 263.148C264.395 280.494 274.149 295.983 288.037 307.152C285.703 312.395 283.93 317.869 282.746 323.484L343.681 338.734L281.302 333.331C280.556 342.035 281.209 350.803 283.237 359.301C287.312 376.645 297.068 392.133 310.954 403.305C303.656 419.681 301.972 438.008 306.161 455.439C316.397 498.383 358.695 524.691 400.639 514.217C442.584 503.742 468.287 460.431 458.052 417.487C453.977 400.143 444.221 384.655 430.335 373.483C437.632 357.106 439.317 338.78 435.127 321.349C431.07 303.99 421.321 288.486 407.432 277.302Z" fill="#05FF00"/>
<path opacity="0.1" d="M283.251 359.272C287.327 376.616 297.082 392.104 310.969 403.276C303.671 419.653 301.986 437.979 306.176 455.41C316.411 498.354 358.709 524.663 400.654 514.188C442.598 503.714 468.302 460.402 458.067 417.458C453.991 400.114 444.236 384.626 430.349 373.454C437.379 357.685 281.172 350.565 283.251 359.272Z" fill="black"/>
</g>
<g opacity="0.2">
<path opacity="0.2" d="M594.02 569.814C593.757 571.692 593.653 573.588 593.709 575.484C606.293 575.686 618.925 576.109 631.605 576.753C631.691 576.256 631.778 575.751 631.85 575.238C632.667 569.949 632.057 564.538 630.082 559.563C627.469 553.2 622.596 548.648 616.497 547.768C610.398 546.888 604.45 549.889 600.155 555.242C596.848 559.466 594.73 564.497 594.02 569.814Z" fill="#3F3D56"/>
<path opacity="0.2" d="M636.229 545.016C638.195 531.348 631.318 519.051 620.87 517.549C610.421 516.048 600.357 525.912 598.391 539.58C596.425 553.248 603.302 565.546 613.75 567.047C624.199 568.548 634.263 558.684 636.229 545.016Z" fill="#3F3D56"/>
<path opacity="0.2" d="M640.578 514.765C642.544 501.097 635.667 488.8 625.218 487.299C614.77 485.798 604.706 495.661 602.74 509.329C600.774 522.998 607.65 535.295 618.099 536.796C628.548 538.297 638.612 528.434 640.578 514.765Z" fill="#3F3D56"/>
<path opacity="0.2" d="M644.925 484.522C646.891 470.853 640.015 458.556 629.566 457.055C619.117 455.554 609.053 465.418 607.087 479.086C605.121 492.754 611.998 505.051 622.447 506.552C632.895 508.053 642.959 498.19 644.925 484.522Z" fill="#3F3D56"/>
<path opacity="0.2" d="M649.281 454.272C651.247 440.604 644.37 428.306 633.922 426.805C623.473 425.304 613.409 435.168 611.443 448.836C609.477 462.504 616.354 474.802 626.802 476.303C637.251 477.804 647.315 467.94 649.281 454.272Z" fill="#3F3D56"/>
<path opacity="0.2" d="M730.919 254.708C733.979 251.785 736.829 248.652 739.45 245.33L690.923 230.094L744.619 238.21C751.386 227.737 755.945 215.994 758.016 203.699C760.088 191.405 759.628 178.818 756.666 166.707L679.172 193.715L752.71 154.4C748.026 142.743 740.991 132.175 732.042 123.354C723.093 114.534 712.423 107.649 700.695 103.129C688.968 98.6096 676.435 96.5518 663.877 97.0841C651.319 97.6164 639.006 100.727 627.703 106.223C616.401 111.719 606.352 119.482 598.183 129.028C590.014 138.575 583.899 149.7 580.219 161.712C576.54 173.723 575.375 186.363 576.797 198.844C578.219 211.325 582.197 223.379 588.484 234.257C583.729 238.797 579.478 243.835 575.801 249.283L635.502 292.047L570.027 259.094C563.139 272.67 559.747 287.748 560.158 302.963C560.569 318.179 564.77 333.052 572.38 346.237C559.946 358.084 551.099 373.188 546.85 389.824C542.601 406.459 543.122 423.954 548.353 440.307C553.584 456.661 563.314 471.213 576.43 482.301C589.546 493.388 605.52 500.563 622.524 503.006C639.529 505.448 656.877 503.059 672.587 496.112C688.297 489.165 701.734 477.94 711.361 463.72C720.989 449.501 726.418 432.861 727.029 415.703C727.64 398.545 723.407 381.562 714.815 366.695C729.674 352.536 739.341 333.797 742.261 313.487C745.182 293.177 741.187 272.476 730.919 254.708V254.708Z" fill="#05FF00"/>
<path opacity="0.1" d="M561.04 287.459C558.089 307.768 562.084 328.479 572.38 346.237C559.946 358.084 551.099 373.188 546.85 389.824C542.601 406.459 543.122 423.954 548.353 440.307C553.584 456.661 563.314 471.213 576.43 482.301C589.546 493.388 605.52 500.563 622.524 503.006C639.529 505.448 656.877 503.059 672.587 496.112C688.297 489.165 701.734 477.94 711.361 463.72C720.989 449.501 726.418 432.861 727.029 415.703C727.639 398.545 723.407 381.562 714.815 366.695C729.179 353.025 562.506 277.294 561.04 287.459Z" fill="black"/>
</g>
<path opacity="0.1" d="M519.5 620C735.167 620 910 609.988 910 597.637C910 585.287 735.167 575.274 519.5 575.274C303.833 575.274 129 585.287 129 597.637C129 609.988 303.833 620 519.5 620Z" fill="#05FF00"/>
<path d="M774.805 588.627C784.89 588.627 793.067 587.054 793.067 585.114C793.067 583.174 784.89 581.601 774.805 581.601C764.719 581.601 756.543 583.174 756.543 585.114C756.543 587.054 764.719 588.627 774.805 588.627Z" fill="#7FFC00" fill-opacity="0.42"/>
<path d="M774.502 586.413C775.678 586.413 776.631 585.166 776.631 583.628C776.631 582.09 775.678 580.844 774.502 580.844C773.326 580.844 772.372 582.09 772.372 583.628C772.372 585.166 773.326 586.413 774.502 586.413Z" fill="#3F3D56"/>
<path d="M774.502 583.008C775.678 583.008 776.631 581.761 776.631 580.223C776.631 578.685 775.678 577.439 774.502 577.439C773.326 577.439 772.372 578.685 772.372 580.223C772.372 581.761 773.326 583.008 774.502 583.008Z" fill="#3F3D56"/>
<path d="M774.502 579.61C775.678 579.61 776.631 578.363 776.631 576.825C776.631 575.288 775.678 574.041 774.502 574.041C773.326 574.041 772.372 575.288 772.372 576.825C772.372 578.363 773.326 579.61 774.502 579.61Z" fill="#3F3D56"/>
<path d="M774.502 576.212C775.678 576.212 776.631 574.966 776.631 573.428C776.631 571.89 775.678 570.643 774.502 570.643C773.326 570.643 772.372 571.89 772.372 573.428C772.372 574.966 773.326 576.212 774.502 576.212Z" fill="#3F3D56"/>
<path d="M774.502 572.807C775.678 572.807 776.631 571.561 776.631 570.023C776.631 568.485 775.678 567.238 774.502 567.238C773.326 567.238 772.372 568.485 772.372 570.023C772.372 571.561 773.326 572.807 774.502 572.807Z" fill="#3F3D56"/>
<path d="M774.502 569.41C775.678 569.41 776.631 568.163 776.631 566.625C776.631 565.087 775.678 563.841 774.502 563.841C773.326 563.841 772.372 565.087 772.372 566.625C772.372 568.163 773.326 569.41 774.502 569.41Z" fill="#3F3D56"/>
<path d="M774.502 566.012C775.678 566.012 776.631 564.765 776.631 563.227C776.631 561.69 775.678 560.443 774.502 560.443C773.326 560.443 772.372 561.69 772.372 563.227C772.372 564.765 773.326 566.012 774.502 566.012Z" fill="#3F3D56"/>
<path d="M782.456 539.963C782.748 539.593 783.014 539.202 783.25 538.794L777.663 537.878L783.705 537.921C784.283 536.661 784.599 535.296 784.632 533.909C784.666 532.522 784.417 531.144 783.899 529.856L775.794 534.062L783.271 528.565C782.574 527.349 781.632 526.289 780.506 525.453C779.38 524.617 778.093 524.023 776.726 523.707C775.359 523.391 773.942 523.36 772.563 523.617C771.183 523.874 769.872 524.412 768.711 525.199C767.549 525.986 766.563 527.004 765.814 528.189C765.064 529.374 764.568 530.701 764.355 532.087C764.142 533.473 764.218 534.888 764.578 536.243C764.938 537.598 765.574 538.865 766.446 539.963C765.995 540.538 765.605 541.16 765.284 541.817L772.502 545.583L764.772 542.986C764.23 544.593 764.099 546.31 764.392 547.981C764.684 549.652 765.391 551.223 766.446 552.551C765.264 554.052 764.529 555.856 764.325 557.755C764.12 559.654 764.455 561.573 765.29 563.291C766.125 565.009 767.427 566.458 769.047 567.472C770.667 568.485 772.54 569.023 774.451 569.023C776.362 569.023 778.235 568.485 779.855 567.472C781.475 566.458 782.777 565.009 783.612 563.291C784.447 561.573 784.782 559.654 784.577 557.755C784.373 555.856 783.638 554.052 782.456 552.551C783.868 550.758 784.636 548.542 784.636 546.261C784.636 543.979 783.868 541.763 782.456 539.97V539.963Z" fill="#7FFC00"/>
<path d="M355.432 616.884C368.906 616.884 379.829 614.784 379.829 612.195C379.829 609.605 368.906 607.506 355.432 607.506C341.958 607.506 331.035 609.605 331.035 612.195C331.035 614.784 341.958 616.884 355.432 616.884Z" fill="#7FFC00" fill-opacity="0.25"/>
<path d="M355.021 613.919C356.591 613.919 357.865 612.255 357.865 610.204C357.865 608.152 356.591 606.489 355.021 606.489C353.45 606.489 352.177 608.152 352.177 610.204C352.177 612.255 353.45 613.919 355.021 613.919Z" fill="#3F3D56"/>
<path d="M355.021 609.374C356.591 609.374 357.865 607.711 357.865 605.659C357.865 603.607 356.591 601.944 355.021 601.944C353.45 601.944 352.177 603.607 352.177 605.659C352.177 607.711 353.45 609.374 355.021 609.374Z" fill="#3F3D56"/>
<path d="M355.021 604.829C356.591 604.829 357.865 603.166 357.865 601.114C357.865 599.062 356.591 597.399 355.021 597.399C353.45 597.399 352.177 599.062 352.177 601.114C352.177 603.166 353.45 604.829 355.021 604.829Z" fill="#3F3D56"/>
<path d="M355.021 600.292C356.591 600.292 357.865 598.629 357.865 596.577C357.865 594.525 356.591 592.862 355.021 592.862C353.45 592.862 352.177 594.525 352.177 596.577C352.177 598.629 353.45 600.292 355.021 600.292Z" fill="#3F3D56"/>
<path d="M355.021 595.747C356.591 595.747 357.865 594.084 357.865 592.032C357.865 589.98 356.591 588.317 355.021 588.317C353.45 588.317 352.177 589.98 352.177 592.032C352.177 594.084 353.45 595.747 355.021 595.747Z" fill="#3F3D56"/>
<path d="M355.021 591.203C356.591 591.203 357.865 589.539 357.865 587.487C357.865 585.436 356.591 583.772 355.021 583.772C353.45 583.772 352.177 585.436 352.177 587.487C352.177 589.539 353.45 591.203 355.021 591.203Z" fill="#3F3D56"/>
<path d="M355.021 586.665C356.591 586.665 357.865 585.002 357.865 582.95C357.865 580.898 356.591 579.235 355.021 579.235C353.45 579.235 352.177 580.898 352.177 582.95C352.177 585.002 353.45 586.665 355.021 586.665Z" fill="#3F3D56"/>
<path d="M365.66 551.866C366.045 551.37 366.397 550.849 366.714 550.308L359.258 549.081L367.328 549.146C368.104 547.462 368.528 545.638 368.573 543.784C368.617 541.931 368.282 540.088 367.588 538.369L356.76 543.981L366.743 536.681C365.803 535.072 364.543 533.674 363.04 532.572C361.538 531.471 359.825 530.69 358.007 530.277C356.19 529.864 354.307 529.829 352.476 530.174C350.645 530.518 348.904 531.235 347.361 532.28C345.818 533.325 344.506 534.675 343.507 536.247C342.508 537.819 341.843 539.58 341.553 541.42C341.263 543.259 341.354 545.139 341.82 546.942C342.287 548.745 343.119 550.433 344.266 551.902C343.663 552.672 343.143 553.504 342.714 554.383L352.408 559.433L342.072 555.97C341.344 558.111 341.162 560.399 341.54 562.628C341.918 564.857 342.845 566.957 344.237 568.739C342.659 570.745 341.678 573.154 341.406 575.691C341.133 578.228 341.581 580.79 342.696 583.085C343.812 585.38 345.552 587.315 347.716 588.668C349.88 590.022 352.381 590.74 354.934 590.74C357.487 590.74 359.989 590.022 362.153 588.668C364.317 587.315 366.056 585.38 367.172 583.085C368.288 580.79 368.735 578.228 368.463 575.691C368.19 573.154 367.209 570.745 365.631 568.739C367.516 566.341 368.54 563.38 368.54 560.331C368.54 557.282 367.516 554.321 365.631 551.923L365.66 551.866Z" fill="#99D55C"/>
<path d="M483.886 405.7C482.045 396.077 479.988 386.432 479.649 376.643C479.447 370.872 479.851 365 479.107 359.243C478.739 356.415 478.097 353.638 477.462 350.861L474.906 339.744C475.196 337.613 475.113 335.448 474.661 333.346C474.405 332.237 474.065 331.149 473.643 330.092C476.029 326.737 477.994 323.103 479.497 319.271C480.176 317.54 480.76 315.701 480.493 313.868C479.974 310.355 476.567 308.04 473.398 306.308C471.478 305.262 469.457 304.252 467.263 304.086C465.728 304.025 464.2 304.318 462.798 304.944C461.395 305.569 460.157 306.51 459.178 307.693C458.645 304.849 458.823 301.918 459.698 299.159C457.814 298.315 455.916 297.522 454.003 296.75C453.726 294.257 453.63 291.747 453.714 289.24C453.757 286.232 453.808 283.195 453.981 280.18C459.114 278.308 463.552 274.911 466.697 270.445C469.843 265.98 471.546 260.659 471.579 255.198C471.579 254.888 471.579 254.585 471.579 254.282C472.978 251.769 473.863 249.003 474.183 246.144C474.502 243.286 474.25 240.393 473.441 237.633C471.326 230.419 465.797 224.475 459.135 220.803C452.473 217.131 444.749 215.58 437.105 215.306C434.54 215.156 431.966 215.318 429.44 215.79C426.736 216.455 424.116 217.422 421.63 218.675C417.811 220.435 413.964 222.361 411.106 225.398C406.147 230.686 405.035 238.455 405.577 245.597C406.298 254.975 409.431 264.05 413.054 272.779C414.26 275.664 415.545 278.593 417.53 281.053C419.067 282.95 421.738 283.065 423.86 281.738C423.691 284.042 423.638 286.354 423.701 288.663C419.782 288.526 415.963 289.168 412.816 291.376C411.373 292.407 410.001 294.03 410.319 295.776C411.283 295.802 412.207 296.167 412.928 296.807C413.649 297.447 414.121 298.321 414.26 299.275C414.419 300.811 413.646 302.276 412.896 303.603C412.571 304.195 412.246 304.793 411.914 305.385C408.81 308.703 405.627 312.858 405.346 316.977C404.839 317.025 404.336 317.1 403.837 317.201C401.022 317.72 398.221 318.68 395.457 319.401L375.448 324.667L370.504 326.038L362.564 328.13C357.511 329.457 352.365 330.821 347.882 333.49C343.4 336.159 339.596 340.35 338.693 345.4C338.246 347.91 338.52 350.522 337.972 353.01C337.972 353.126 337.928 353.234 337.899 353.342C337.441 354.918 336.824 356.443 336.059 357.894C331.576 367.337 328.386 377.631 328.985 388.026C329.353 394.41 331.151 400.636 332.897 406.782C334.731 413.068 336.54 419.353 338.325 425.639C339.503 430.139 340.996 434.55 342.793 438.84C345.873 445.712 350.441 451.815 356.168 456.709C357.776 458.149 359.573 459.363 361.51 460.315C364.463 461.592 367.688 462.115 370.893 461.838C371.76 461.78 372.611 461.686 373.456 461.549C379.656 460.568 385.438 457.581 390.743 454.22C392.962 452.816 395.127 451.337 397.24 449.783C397.508 452.207 397.991 454.601 398.683 456.939C399.152 458.548 399.73 460.2 399.542 461.866C399.282 464.189 397.593 466.094 396.72 468.272C394.865 472.875 396.77 478.004 397.081 482.938C397.377 487.562 396.251 492.15 395.348 496.702C393.842 504.293 392.951 511.994 392.685 519.728C392.677 522.657 392.484 525.582 392.108 528.486C391.436 532.583 389.863 536.536 389.588 540.677C389.17 547.126 391.956 553.438 391.703 559.895C391.407 567.476 386.954 574.842 388.506 582.257C388.701 583.188 389.227 584.263 390.079 584.501L389.661 584.883C388.383 586.066 387.141 588.252 388.592 589.212C388.926 589.41 389.297 589.538 389.682 589.587C391.927 590.056 394.186 590.481 396.446 590.878C396.396 592.964 396.659 595.045 397.225 597.053C397.637 597.349 398.055 597.616 398.474 597.868C398.156 598.719 398.178 599.542 398.929 600.032C399.262 600.231 399.633 600.358 400.019 600.407C418.612 604.241 437.601 605.816 456.572 605.096C459.965 604.966 463.509 604.721 466.404 602.99C469.298 601.259 471.254 597.572 469.875 594.535C468.656 591.852 465.465 590.69 462.6 589.796L459.236 588.757C459.667 587.994 459.918 587.142 459.971 586.267C460.023 585.392 459.876 584.517 459.539 583.707C458.319 581.024 455.129 579.862 452.263 578.968L444.518 576.566C443.499 576.324 442.54 575.875 441.703 575.246C441.148 574.694 440.637 574.101 440.173 573.471C439.055 572.194 437.587 571.274 435.95 570.824C435.863 569.183 435.899 567.539 436.059 565.904L438.224 539.783C438.708 533.867 439.184 527.837 437.805 522.058C437.25 519.714 436.362 517.312 436.903 514.96C437.748 511.122 441.79 508.987 444.547 506.137C448.705 501.809 449.997 495.656 450.95 489.798C454.895 465.626 456.135 441.09 454.645 416.643C463.31 414.202 472.228 412.769 481.222 412.373C482.753 412.308 483.503 411.586 483.98 410.158C484.456 408.73 484.167 407.179 483.886 405.7ZM440.685 406.977C440.736 406.724 440.794 406.472 440.837 406.219L441.436 406.984L440.685 406.977Z" fill="url(#paint0_linear)"/>
<path d="M426.61 274.568C426.422 277.078 425.535 279.487 425.21 281.991C424.842 284.746 425.166 287.552 424.986 290.33C424.806 293.107 424.004 296.029 421.889 297.839C434.182 298.903 446.289 301.521 457.922 305.63C454.407 301.302 454.313 295.257 454.4 289.702C454.515 281.486 454.66 273.11 457.345 265.356C449.336 263.566 441.043 263.458 432.991 265.038C431.244 265.384 425.953 265.168 425.166 266.798C424.596 267.996 426.74 272.75 426.61 274.568Z" fill="#A1616A"/>
<path opacity="0.1" d="M426.61 274.568C426.422 277.078 425.535 279.487 425.21 281.991C424.842 284.746 425.166 287.552 424.986 290.33C424.806 293.107 424.004 296.029 421.889 297.839C434.182 298.903 446.289 301.521 457.922 305.63C454.407 301.302 454.313 295.257 454.4 289.702C454.515 281.486 454.66 273.11 457.345 265.356C449.336 263.566 441.043 263.458 432.991 265.038C431.244 265.384 425.953 265.168 425.166 266.798C424.596 267.996 426.74 272.75 426.61 274.568Z" fill="black"/>
<path d="M441.162 573.507C441.596 574.147 442.078 574.752 442.605 575.318C443.418 575.947 444.356 576.397 445.356 576.638L452.92 579.04C455.728 579.935 458.846 581.089 460.037 583.772C461.38 586.802 459.467 590.488 456.637 592.212C453.808 593.937 450.343 594.189 447.03 594.319C428.48 595.033 409.912 593.461 391.747 589.637C391.372 589.583 391.011 589.455 390.686 589.262C389.242 588.288 390.476 586.11 391.725 584.934C396.597 580.317 401.895 575.476 408.529 574.409C412.015 573.839 415.516 574.07 418.981 573.24C421.471 572.641 423.824 571.61 426.307 570.997C430.934 569.864 437.856 569.46 441.162 573.507Z" fill="#46455B"/>
<path opacity="0.1" d="M441.162 573.507C441.596 574.147 442.078 574.752 442.605 575.318C443.418 575.947 444.356 576.397 445.356 576.638L452.92 579.04C455.728 579.935 458.846 581.089 460.037 583.772C461.38 586.802 459.467 590.488 456.637 592.212C453.808 593.937 450.343 594.189 447.03 594.319C428.48 595.033 409.912 593.461 391.747 589.637C391.372 589.583 391.011 589.455 390.686 589.262C389.242 588.288 390.476 586.11 391.725 584.934C396.597 580.317 401.895 575.476 408.529 574.409C412.015 573.839 415.516 574.07 418.981 573.24C421.471 572.641 423.824 571.61 426.307 570.997C430.934 569.864 437.856 569.46 441.162 573.507Z" fill="black"/>
<path d="M403.18 410.346C399.447 420.19 399.218 431.018 402.53 441.011C400.011 440.737 398.921 444.142 398.986 446.681C399.076 450.217 399.612 453.726 400.582 457.127C401.044 458.743 401.607 460.388 401.426 462.047C401.166 464.37 399.521 466.274 398.662 468.445C396.857 473.041 398.712 478.162 399.022 483.089C399.311 487.714 398.207 492.294 397.319 496.839C395.848 504.422 394.979 512.109 394.72 519.829C394.715 522.755 394.525 525.678 394.15 528.58C393.501 532.677 391.985 536.623 391.696 540.757C391.285 547.191 394.006 553.503 393.76 559.952C393.472 567.52 389.112 574.878 390.635 582.315C390.852 583.361 391.436 584.595 392.512 584.609C403.397 584.746 413.567 581.724 424.336 583.303C425.434 558.401 426.502 533.384 431.41 508.936C435.741 487.172 443.082 465.654 442.396 443.464C441.999 430.775 438.982 418.331 437.149 405.765C425.641 403.211 413.599 404.835 403.18 410.346V410.346Z" fill="#BBBDC8"/>
<path opacity="0.1" d="M403.18 410.346C399.447 420.19 399.218 431.018 402.53 441.011C400.011 440.737 398.921 444.142 398.986 446.681C399.076 450.217 399.612 453.726 400.582 457.127C401.044 458.743 401.607 460.388 401.426 462.047C401.166 464.37 399.521 466.274 398.662 468.445C396.857 473.041 398.712 478.162 399.022 483.089C399.311 487.714 398.207 492.294 397.319 496.839C395.848 504.422 394.979 512.109 394.72 519.829C394.715 522.755 394.525 525.678 394.15 528.58C393.501 532.677 391.985 536.623 391.696 540.757C391.285 547.191 394.006 553.503 393.76 559.952C393.472 567.52 389.112 574.878 390.635 582.315C390.852 583.361 391.436 584.595 392.512 584.609C403.397 584.746 413.567 581.724 424.336 583.303C425.434 558.401 426.502 533.384 431.41 508.936C435.741 487.172 443.082 465.654 442.396 443.464C441.999 430.775 438.982 418.331 437.149 405.765C425.641 403.211 413.599 404.835 403.18 410.346V410.346Z" fill="black"/>
<path d="M451.267 584.328C451.701 584.968 452.184 585.573 452.711 586.138C453.524 586.768 454.461 587.218 455.461 587.459L463.025 589.861C465.833 590.755 468.952 591.91 470.143 594.593C471.485 597.623 469.572 601.309 466.743 603.033C463.913 604.757 460.449 605.01 457.135 605.14C438.585 605.854 420.017 604.281 401.852 600.458C401.477 600.404 401.117 600.276 400.791 600.083C399.347 599.109 400.582 596.93 401.83 595.754C406.703 591.138 412.001 586.297 418.634 585.23C422.12 584.66 425.621 584.89 429.086 584.061C431.576 583.462 433.929 582.431 436.412 581.817C441.039 580.685 447.961 580.281 451.267 584.328Z" fill="#46455B"/>
<path d="M406.934 411.06C404.147 414.667 403.324 419.428 403.7 423.943C404.075 428.459 405.598 432.795 407.092 437.073C405.107 438.898 405.519 442.043 405.779 444.726C406.724 454.696 403.259 464.644 403.765 474.642C403.974 478.848 404.891 482.996 405.107 487.201C405.346 491.796 404.761 496.392 404.212 500.958C400.708 530.191 398.78 559.591 398.438 589.031C398.438 591.744 398.394 594.499 399.16 597.096C404.407 600.956 410.997 601.475 417.349 600.032C423.701 598.589 429.497 595.372 435.192 592.198C438.312 590.584 441.271 588.676 444.027 586.499C444.871 585.903 445.495 585.046 445.803 584.061C446.409 581.175 442.396 579.87 440.094 578.001C436.744 575.282 436.795 570.246 437.141 565.947L439.235 539.862C439.711 533.954 440.173 527.93 438.83 522.159C438.282 519.822 437.437 517.42 437.943 515.068C438.765 511.245 442.721 509.11 445.413 506.26C449.484 501.932 450.74 495.793 451.679 489.95C456.101 462.229 457.042 434.065 454.479 406.111C449.174 407.951 442.887 406.948 437.293 407.381C431.699 407.813 426.141 409.682 420.475 409.833C415.754 409.942 409.835 407.337 406.934 411.06Z" fill="#BBBDC8"/>
<path d="M445.153 282.394C459.903 282.394 471.86 270.445 471.86 255.703C471.86 240.962 459.903 229.012 445.153 229.012C430.404 229.012 418.446 240.962 418.446 255.703C418.446 270.445 430.404 282.394 445.153 282.394Z" fill="#A1616A"/>
<path d="M460.246 299.607C451.688 295.678 442.765 292.6 433.604 290.416C427.151 288.88 419.782 287.956 414.39 291.816C412.946 292.847 411.64 294.47 411.95 296.216C412.902 296.248 413.811 296.616 414.516 297.255C415.22 297.895 415.675 298.764 415.797 299.708C415.956 301.237 415.205 302.701 414.469 304.036L408.24 315.578C407.046 317.657 406.021 319.828 405.172 322.07C403.916 325.735 403.642 329.659 403.375 333.526L402.653 344C402.206 350.601 401.751 357.23 402.35 363.817C402.798 368.787 403.837 373.779 403.13 378.72C402.559 382.695 400.877 386.425 399.932 390.334C398.156 397.693 398.965 405.758 395.522 412.51C396.92 411.865 398.498 411.722 399.99 412.106C410.441 414.032 418.663 422.277 428.812 425.43C431.374 421.693 434.846 418.937 437.712 415.46C439.843 412.854 441.254 409.735 441.804 406.414C443.97 409.299 445.81 411.55 447.102 414.897C447.332 415.676 447.726 416.397 448.257 417.011C449.621 418.338 451.866 417.826 453.692 417.271C462.645 414.572 471.901 413.004 481.244 412.603C482.745 412.539 483.474 411.817 483.944 410.389C484.413 408.96 484.153 407.417 483.871 405.945C482.074 396.329 480.067 386.699 479.735 376.924C479.533 371.153 479.93 365.303 479.201 359.546C478.84 356.725 478.212 353.948 477.592 351.178L472.438 328.289C472.149 327.012 470.778 326.175 470.193 324.999C467.826 320.209 463.3 316.747 460.961 311.942C459.195 308.063 458.94 303.664 460.246 299.607V299.607Z" fill="#46455B"/>
<path d="M422.777 266.387C422.746 266.013 422.834 265.64 423.03 265.319C423.315 265.02 423.673 264.799 424.069 264.677C425.146 264.167 426.026 263.319 426.577 262.264C427.128 261.208 427.319 260.001 427.123 258.827L429.649 258.3L429.728 249.507C433.482 247.429 438.599 249.002 442.129 246.556C444.114 245.171 445.132 242.82 446.344 240.728C447.557 238.636 449.362 236.529 451.772 236.356C450.943 238.464 450.588 240.728 450.731 242.988C450.875 245.248 451.514 247.449 452.603 249.435C455.13 248.156 457.241 246.184 458.687 243.75L459.943 250.964C459.969 251.409 460.159 251.828 460.477 252.14C461.134 252.623 462.022 252.017 462.6 251.418L465.869 248.208C467.246 251.659 468.189 255.267 468.677 258.95C474.048 253.741 475.715 245.373 473.651 238.188C471.586 231.003 466.18 225.052 459.669 221.38C453.158 217.708 445.608 216.165 438.137 215.891C435.63 215.744 433.113 215.906 430.645 216.374C427.997 217.04 425.435 218.008 423.008 219.259C419.276 221.012 415.509 222.938 412.722 225.968C407.872 231.249 406.782 239.011 407.316 246.167C408.038 255.545 411.084 264.598 414.628 273.312C415.805 276.198 417.06 279.119 419.002 281.579C421.926 285.28 429.108 282.207 428.191 274.892C427.556 269.669 422.777 271.682 422.777 266.387Z" fill="#3F3D56"/>
<path d="M432.883 409.285C423.875 427.679 410.042 443.287 392.858 454.443C387.668 457.798 382.031 460.784 375.961 461.765C375.13 461.903 374.3 461.996 373.456 462.054C370.325 462.313 367.18 461.78 364.311 460.503C362.411 459.547 360.652 458.333 359.085 456.896C353.468 451.983 349.004 445.891 346.013 439.056C344.254 434.767 342.795 430.361 341.646 425.87C339.875 419.589 338.109 413.306 336.348 407.02C334.622 400.874 332.883 394.656 332.522 388.264C331.937 377.883 335.056 367.604 339.437 358.175C340.184 356.723 340.786 355.201 341.234 353.631C341.234 353.522 341.285 353.414 341.306 353.299C341.826 350.81 341.559 348.206 342.028 345.696C342.909 340.646 346.633 336.462 351.008 333.8C355.382 331.138 360.391 329.775 365.364 328.447L373.109 326.363L377.917 325.071L397.471 319.812C400.177 319.091 402.913 318.132 405.663 317.648C408.731 317.071 408.709 317.374 408.947 320.375C409.388 325.814 409.243 331.16 410.391 336.548C411.481 341.692 413.401 346.648 414.845 351.697C418.49 364.444 419.096 377.862 421.969 390.811C422.626 393.761 423.535 396.906 425.91 398.746C428.631 400.91 433.215 401.444 433.936 404.834C434.204 406.342 433.532 407.886 432.883 409.285Z" fill="#6C63FF"/>
<path opacity="0.1" d="M375.961 461.737C375.131 461.874 374.3 461.967 373.456 462.025C370.328 462.293 367.183 461.77 364.311 460.503C362.411 459.547 360.652 458.333 359.085 456.896C353.468 451.983 349.004 445.891 346.013 439.056C344.254 434.767 342.795 430.361 341.646 425.87C339.875 419.589 338.109 413.306 336.348 407.02C334.622 400.874 332.883 394.656 332.522 388.264C331.937 377.883 335.056 367.604 339.437 358.175C340.184 356.723 340.786 355.201 341.234 353.631C341.234 353.522 341.285 353.414 341.306 353.299C353.086 355.369 367.219 377.891 374.51 407.402C379.88 429.469 380.111 449.791 375.961 461.737Z" fill="black"/>
<path opacity="0.1" d="M397.254 384.087L395.283 384.426C393.255 379.103 391.234 373.772 388.859 368.592C387.625 365.887 386.29 363.218 385.25 360.426C381.353 349.706 382.017 336.988 374.791 328.159C374.276 327.503 373.687 326.908 373.037 326.384L377.845 325.093C382.054 331.745 385.023 339.104 386.607 346.814C387.387 350.579 387.827 354.431 389.098 358.053C390.178 360.8 391.414 363.483 392.8 366.089C395.543 371.708 397.608 377.847 397.254 384.087Z" fill="black"/>
<path d="M416.44 302.81C421.63 298.366 428.711 295.928 435.431 297.038C439.386 297.681 443.06 299.462 446.604 301.367C453.512 305.031 460.319 309.251 465.299 315.275C468.286 319.074 470.765 323.245 472.676 327.683C473.613 329.622 474.339 331.656 474.842 333.749C476.603 341.901 472.279 350.002 468.114 357.23L460.102 371.124C456.421 377.508 452.711 383.936 447.918 389.541C445.709 392.124 443.284 394.511 440.866 396.899L430.248 407.373C430.057 407.599 429.807 407.766 429.526 407.857C429.294 407.869 429.063 407.831 428.847 407.745C428.631 407.659 428.437 407.527 428.277 407.359L424.769 404.567C428.001 402.336 431.003 399.792 433.734 396.971C438.325 392.225 442.1 386.764 445.854 381.324L457.533 364.401C460.947 359.445 464.512 353.991 464.13 347.99C463.949 345.104 462.867 342.392 461.733 339.744C459.727 335.036 457.547 330.402 455.194 325.843C452.552 320.729 449.665 315.679 445.861 311.358C442.057 307.037 437.25 303.423 431.713 301.857C430.062 301.318 428.312 301.151 426.588 301.367C422.792 301.994 420.092 305.255 417.688 308.285L410.369 317.663C408.702 319.791 407.172 322.258 407.071 318.218C406.897 312.454 412.73 306.517 416.44 302.81Z" fill="#6C63FF"/>
<path d="M418.706 366.074C420.15 371.629 422.279 377.934 427.628 380.04C431.417 381.534 435.856 380.322 439.133 377.876C442.411 375.431 444.735 371.983 446.871 368.498C448.68 365.367 450.673 362.347 452.841 359.452C457.121 354.085 462.946 349.829 465.833 343.582C466.685 341.721 467.277 339.73 468.244 337.941C469.278 336.291 470.446 334.73 471.738 333.273C475.061 329.158 477.718 324.548 479.613 319.61C480.277 317.886 480.847 316.04 480.587 314.215C480.075 310.701 476.747 308.393 473.65 306.669C471.767 305.623 469.796 304.606 467.652 304.447C464.52 304.202 461.437 305.89 459.51 308.364C457.655 310.923 456.618 313.984 456.536 317.143C456.32 320.988 457.07 324.985 455.815 328.62C455.15 330.317 454.233 331.902 453.093 333.324C449.039 338.745 444.02 343.374 438.289 346.98C438.132 344.251 437.54 341.565 436.535 339.023C435.986 337.623 425.231 339.023 423.831 339.254C421.059 339.658 415.689 339.975 413.942 342.615C412.196 345.255 414.361 349.692 415.068 352.354L418.706 366.074Z" fill="#A1616A"/>
<path d="M418.446 305.457C416.849 306.776 415.362 308.224 414 309.785C410.795 313.645 409.229 318.665 408.825 323.665C408.42 328.664 409.106 333.685 409.965 338.626C410.745 343.06 411.666 347.463 412.73 351.834C413.026 348.538 415.696 345.811 418.793 344.621C421.889 343.43 425.289 343.56 428.588 344.044C432.833 344.672 436.975 345.868 440.902 347.6L442.425 326.269C442.746 323.391 442.729 320.486 442.374 317.612C441.895 314.946 440.852 312.412 439.317 310.179C437.781 307.946 435.787 306.066 433.467 304.663C427.678 301.143 423.643 300.92 418.446 305.457Z" fill="#46455B"/>
<path d="M691.132 409.256C690.447 403.467 688.762 397.841 686.152 392.628C684.557 389.454 682.615 386.417 681.612 383.02C680.796 380.257 680.637 377.35 679.988 374.543C679.338 371.737 678.19 369.054 677.266 366.313C670.734 346.835 675.642 325.526 673.535 305.111C672.748 297.58 670.438 289.32 663.906 285.395C660.022 283.065 655.359 282.705 650.79 282.51L648.704 282.416L645.355 282.25C640.504 282.012 635.639 281.832 630.919 282.849C625.144 284.111 618.302 288.173 616.483 294.066C615.486 293.554 614.483 293.1 613.559 292.674C609.841 291.026 605.943 289.815 601.945 289.067C605.375 288.204 608.686 286.925 611.805 285.258C619.023 281.06 620.698 268.796 622.17 260.594C623.643 252.392 622.3 243.916 619.853 235.945C619.045 233.116 617.945 230.38 616.569 227.779C614.669 224.353 612.083 221.356 608.972 218.974C605.86 216.593 602.291 214.878 598.487 213.937C594.683 212.996 590.725 212.849 586.862 213.505C582.998 214.162 579.312 215.607 576.032 217.752C569.298 222.159 563.04 228.572 557.9 234.769C557.179 235.62 554.161 238.636 555.165 239.905C555.728 240.627 557.583 240.05 559.532 239.184C558.032 242.569 557.26 246.231 557.265 249.932C557.269 254.582 558.485 259.15 560.792 263.188C563.099 267.225 566.419 270.593 570.424 272.959L571.146 279.596V279.646C571.225 281.861 571.261 284.075 571.29 286.283C571.29 287.834 571.29 289.421 571.247 291.008C568.252 294.395 564.584 297.122 560.477 299.015C563.87 299.578 567.103 298.784 570.251 297.428C569.739 299.2 568.88 300.853 567.724 302.29C568.59 301.987 569.457 301.713 570.323 301.424C569.87 302.151 569.467 302.908 569.117 303.69C568.583 304.925 568.193 306.217 567.955 307.542C566.117 310.226 564.525 313.07 563.198 316.04V316.04C562.592 317.389 562.051 318.759 561.56 320.151V320.245C561.079 321.63 560.653 323.035 560.282 324.458C560.109 325.141 559.95 325.826 559.806 326.514C559.806 326.565 559.806 326.615 559.806 326.666C559.517 328.058 559.279 329.457 559.084 330.871C559.084 330.965 559.084 331.059 559.084 331.16C559.005 331.816 558.933 332.48 558.882 333.144C558.882 333.144 558.882 333.208 558.882 333.244C558.824 333.966 558.781 334.651 558.759 335.358C558.759 335.452 558.759 335.538 558.759 335.632C558.759 336.231 558.759 336.837 558.759 337.436V337.847C558.759 339.203 558.846 340.567 558.976 341.93C558.976 342.096 558.976 342.269 559.026 342.435C559.084 342.99 559.149 343.546 559.228 344.108C559.228 344.238 559.228 344.368 559.279 344.491C559.373 345.162 559.481 345.825 559.604 346.489C559.604 346.633 559.669 346.785 559.698 346.929C559.799 347.463 559.907 347.99 560.03 348.523L560.16 349.072C560.318 349.735 560.484 350.392 560.672 351.055C560.78 351.43 560.889 351.777 561.004 352.174C561.349 353.541 561.59 354.932 561.726 356.336L557.778 356.466C549.328 356.706 540.885 357.088 532.449 357.613C531.395 353.551 527.801 351.207 523.275 350.651C522.556 350.565 521.833 350.522 521.11 350.522V350.522C521.89 349.864 522.584 349.11 523.174 348.278C523.959 347.198 524.519 345.972 524.82 344.671C523.656 345.333 522.64 346.224 521.831 347.29C521.564 347.65 521.326 348.011 521.11 348.343V346.179C521.111 346.133 521.102 346.088 521.085 346.045C521.068 346.003 521.043 345.964 521.01 345.932C520.978 345.899 520.939 345.874 520.897 345.857C520.854 345.84 520.809 345.832 520.763 345.833H520.041C519.996 345.832 519.95 345.84 519.908 345.857C519.865 345.874 519.827 345.899 519.794 345.932C519.762 345.964 519.736 346.003 519.719 346.045C519.702 346.088 519.694 346.133 519.695 346.179V350.586H519.551H519.305C518.829 350.63 518.367 350.687 517.912 350.774C512.996 351.69 509.395 354.843 509.395 360.152C509.396 361.824 509.761 363.475 510.464 364.992C511.167 366.51 512.191 367.856 513.466 368.938C513.677 370.592 514.052 372.221 514.584 373.8C515.082 375.366 515.732 377.068 517.19 377.847C518.081 378.251 519.058 378.43 520.034 378.367C528.061 378.367 535.654 374.666 543.645 374.039C548.582 373.642 553.541 374.406 558.492 374.255C559.214 374.255 559.936 374.183 560.658 374.125C553.887 407.633 545.694 441.567 549.975 475.414C550.256 477.665 550.697 480.103 552.378 481.632C554.609 483.667 558.045 483.335 561.04 483.075C569.261 482.326 577.548 482.987 585.546 485.03C586.67 485.341 587.852 485.383 588.996 485.153C589.241 485.097 589.482 485.027 589.718 484.943L589.92 484.864C590.071 484.806 590.216 484.749 590.353 484.684L590.562 484.575L590.916 484.359C590.974 484.316 591.039 484.28 591.089 484.236C591.215 484.15 591.333 484.054 591.443 483.948L591.544 483.861C591.679 483.729 591.807 483.589 591.927 483.443L592.013 483.313C592.097 483.205 592.174 483.091 592.244 482.974C592.28 482.916 592.316 482.859 592.345 482.801C592.374 482.743 592.461 482.584 592.511 482.476C592.562 482.368 592.569 482.346 592.591 482.281C592.612 482.217 592.684 482.043 592.728 481.921C592.771 481.798 592.728 481.805 592.786 481.74C592.843 481.676 592.887 481.38 592.923 481.199V481.084C592.923 480.932 592.98 480.774 593.002 480.622C593.024 480.471 593.002 480.464 593.002 480.384C593.002 480.305 593.002 480.146 593.002 480.031V479.771C593.002 479.656 593.002 479.54 593.002 479.425V478.783C593.002 478.711 593.002 478.631 593.002 478.552C593.002 477.91 592.93 477.261 592.865 476.64C593.381 476.79 593.907 476.903 594.438 476.979V476.979C594.935 477.058 595.437 477.094 595.94 477.088H596.012C596.25 477.088 596.488 477.088 596.734 477.03C596.943 476.998 597.15 476.954 597.355 476.9H597.448C597.637 476.844 597.821 476.772 597.997 476.684L598.084 476.633C598.234 476.55 598.376 476.453 598.509 476.345L598.574 476.294C598.71 476.168 598.831 476.028 598.935 475.876L599 475.767C599.107 475.593 599.192 475.407 599.253 475.212C599.664 473.82 598.726 472.247 600.227 470.97C601.671 475.594 603.115 480.226 603.353 485.008C603.432 486.754 603.353 488.615 604.378 490.058C605.045 490.845 605.769 491.583 606.543 492.265C608.752 494.653 608.802 498.253 608.651 501.485C608.586 502.79 608.514 504.096 608.42 505.402C607.227 522.826 603.682 540.008 597.882 556.483C597.316 558.235 596.576 559.927 595.673 561.532C594.208 563.804 592.376 565.818 590.252 567.491C587.242 570.045 584.018 572.335 580.616 574.337C578.878 575.255 577.236 576.345 575.715 577.59C575.657 577.424 575.592 577.266 575.549 577.092C575.469 576.761 575.361 576.371 575.036 576.248C574.79 576.193 574.531 576.234 574.314 576.364C570.929 577.85 567.544 579.336 564.288 581.074C562.645 581.823 561.197 582.941 560.059 584.342C559.019 585.785 558.709 587.949 559.784 589.392C560.73 590.654 562.426 591.073 563.992 591.354C565.999 591.707 568.013 591.96 570.027 592.148C568.992 592.753 568.087 593.558 567.363 594.514C566.324 595.956 566.014 598.121 567.089 599.563C568.035 600.826 569.731 601.244 571.297 601.525C584.095 603.783 597.217 602.247 610.21 601.865C614.433 601.727 618.749 601.699 622.748 600.328C623.537 600.095 624.272 599.71 624.913 599.195C626.732 597.594 626.552 594.781 626.234 592.393L624.913 582.64C624.718 582.64 624.531 582.705 624.343 582.748C625.45 573.586 627.434 564.551 630.269 555.768C634.672 542.098 641.226 528.63 641.14 514.325C641.14 513.979 641.14 513.604 641.14 513.286C641.017 508.807 640.216 504.377 639.696 499.919C638.88 492.46 638.974 484.936 639.025 477.441C638.962 474.502 639.167 471.564 639.638 468.662C639.638 468.561 639.682 468.467 639.703 468.366L651.693 468.049C653.021 468.116 654.347 467.869 655.561 467.327C656.136 467.075 656.597 466.62 656.856 466.048C657.114 465.477 657.152 464.83 656.962 464.233C662.072 466.548 668.908 463.396 670.416 458.029C670.521 457.651 670.605 457.268 670.669 456.882C670.665 456.853 670.665 456.824 670.669 456.795C670.719 456.434 670.756 456.074 670.77 455.72C670.77 455.663 670.77 455.598 670.77 455.54C670.845 453.062 670.461 450.592 669.637 448.254C667.183 441.307 663.285 434.981 659.618 428.582C657.727 425.271 655.893 421.916 654.111 418.548L655.677 420.56C656.227 421.381 656.948 422.073 657.792 422.587C660.715 424.095 663.776 421.058 666.75 419.659C670.698 417.797 675.317 418.894 679.677 419.204C684.037 419.514 689.292 418.389 690.851 414.349C691.356 412.699 691.453 410.952 691.132 409.256V409.256ZM615.97 300.84C615.97 302.384 616.071 303.949 616.194 305.522C614.729 303.129 613.037 300.882 611.141 298.813L615.97 300.84Z" fill="url(#paint1_linear)"/>
<path d="M521.665 348.588C522.465 347.531 523.469 346.645 524.618 345.984C524.325 347.283 523.772 348.51 522.994 349.591C521.738 351.301 520.417 352.476 520.049 352.195C519.68 351.914 520.395 350.298 521.665 348.588Z" fill="#99D55C"/>
<path opacity="0.1" d="M521.824 348.718C522.408 347.932 523.145 347.272 523.99 346.778C523.77 347.739 523.36 348.646 522.784 349.447C521.846 350.716 520.864 351.611 520.619 351.387C520.373 351.164 520.886 349.988 521.824 348.718Z" fill="black"/>
<path d="M519.911 347.153H520.633C520.679 347.153 520.724 347.162 520.766 347.179C520.808 347.196 520.846 347.222 520.878 347.254C520.91 347.286 520.936 347.324 520.953 347.366C520.971 347.408 520.98 347.453 520.98 347.499V355.672H519.608V347.499C519.608 347.414 519.638 347.332 519.694 347.268C519.75 347.204 519.827 347.163 519.911 347.153V347.153Z" fill="#F6987E"/>
<path d="M532.493 361.443C532.493 364.504 531.276 367.44 529.11 369.605C526.944 371.769 524.007 372.985 520.944 372.985C517.881 372.985 514.943 371.769 512.777 369.605C510.611 367.44 509.395 364.504 509.395 361.443C509.395 356.156 512.953 353.025 517.811 352.109C518.844 351.918 519.893 351.824 520.944 351.827C521.667 351.826 522.391 351.87 523.109 351.957C528.45 352.621 532.493 355.809 532.493 361.443Z" fill="#FC4A4A"/>
<path opacity="0.1" d="M523.109 351.957C522.9 352.354 521.766 352.678 520.395 352.678C519.5 352.744 518.605 352.556 517.811 352.137C518.844 351.947 519.893 351.853 520.944 351.856C521.667 351.846 522.39 351.879 523.109 351.957Z" fill="black"/>
<path opacity="0.1" d="M522.871 372.711C519.808 372.711 516.87 371.495 514.704 369.331C512.539 367.166 511.322 364.23 511.322 361.169C511.322 355.975 514.75 352.866 519.471 351.892C518.914 351.934 518.36 352.007 517.811 352.109C512.953 353.025 509.395 356.156 509.395 361.443C509.395 364.504 510.611 367.44 512.777 369.605C514.943 371.769 517.881 372.985 520.944 372.985C521.816 372.987 522.685 372.888 523.535 372.69C523.311 372.704 523.109 372.711 522.871 372.711Z" fill="black"/>
<path d="M573.78 586.348C575.375 587.79 577.815 587.754 579.981 587.596L589.848 586.874C597.687 586.297 605.793 585.648 612.708 581.918C613.439 581.584 614.088 581.091 614.606 580.476C615.156 579.532 615.442 578.458 615.436 577.367C616.37 566.682 618.496 556.135 621.773 545.922C626.104 532.324 632.601 518.92 632.514 504.688C632.514 504.341 632.514 503.966 632.514 503.656C632.391 499.198 631.605 494.79 631.121 490.354C630.32 482.931 630.399 475.45 630.457 467.991C630.395 465.067 630.598 462.143 631.063 459.255C631.518 456.911 633.229 454.559 632.182 452.496C630.154 448.492 622.798 447.02 618.843 446.876C613.516 446.689 608.276 448.081 603.129 449.466C601.563 449.892 599.924 450.346 598.74 451.45C597.153 452.936 596.698 455.266 596.64 457.437C596.366 467.068 601.916 476.027 602.357 485.643C602.436 487.374 602.357 489.25 603.367 490.693C604.034 491.478 604.758 492.214 605.533 492.893C607.698 495.266 607.763 498.844 607.612 502.062C607.547 503.36 607.474 504.659 607.388 505.957C606.209 523.287 602.705 540.381 596.972 556.778C596.419 558.529 595.694 560.221 594.807 561.828C593.358 564.084 591.549 566.088 589.451 567.758C586.478 570.295 583.292 572.574 579.93 574.568C577.685 575.895 575.289 577.165 573.751 579.271C572.214 581.377 571.875 584.573 573.78 586.348Z" fill="#FDA8A8"/>
<path opacity="0.1" d="M573.78 586.348C575.375 587.79 577.815 587.754 579.981 587.596L589.848 586.874C597.687 586.297 605.793 585.648 612.708 581.918C613.439 581.584 614.088 581.091 614.606 580.476C615.156 579.532 615.442 578.458 615.436 577.367C616.37 566.682 618.496 556.135 621.773 545.922C626.104 532.324 632.601 518.92 632.514 504.688C632.514 504.341 632.514 503.966 632.514 503.656C632.391 499.198 631.605 494.79 631.121 490.354C630.32 482.931 630.399 475.45 630.457 467.991C630.395 465.067 630.598 462.143 631.063 459.255C631.518 456.911 633.229 454.559 632.182 452.496C630.154 448.492 622.798 447.02 618.843 446.876C613.516 446.689 608.276 448.081 603.129 449.466C601.563 449.892 599.924 450.346 598.74 451.45C597.153 452.936 596.698 455.266 596.64 457.437C596.366 467.068 601.916 476.027 602.357 485.643C602.436 487.374 602.357 489.25 603.367 490.693C604.034 491.478 604.758 492.214 605.533 492.893C607.698 495.266 607.763 498.844 607.612 502.062C607.547 503.36 607.474 504.659 607.388 505.957C606.209 523.287 602.705 540.381 596.972 556.778C596.419 558.529 595.694 560.221 594.807 561.828C593.358 564.084 591.549 566.088 589.451 567.758C586.478 570.295 583.292 572.574 579.93 574.568C577.685 575.895 575.289 577.165 573.751 579.271C572.214 581.377 571.875 584.573 573.78 586.348Z" fill="black"/>
<path d="M573.78 586.348C575.375 587.79 577.815 587.754 579.981 587.596L589.848 586.874C597.687 586.297 605.793 585.648 612.708 581.918C613.439 581.584 614.088 581.091 614.606 580.476C615.156 579.532 615.442 578.458 615.436 577.367C616.37 566.682 618.496 556.135 621.774 545.922C626.104 532.324 632.601 518.92 632.514 504.688C624.172 505.609 615.781 506.024 607.388 505.928C606.209 523.258 602.705 540.352 596.972 556.749C596.419 558.5 595.694 560.192 594.807 561.799C593.358 564.056 591.549 566.059 589.451 567.729C586.478 570.266 583.292 572.545 579.93 574.539C577.685 575.866 575.289 577.136 573.751 579.242C572.214 581.349 571.875 584.573 573.78 586.348Z" fill="#EEEFF3"/>
<path opacity="0.1" d="M573.78 586.348C575.375 587.79 577.815 587.754 579.981 587.596L589.848 586.874C597.687 586.297 605.793 585.648 612.708 581.918C613.439 581.584 614.088 581.091 614.606 580.476C615.156 579.532 615.442 578.458 615.436 577.367C616.37 566.682 618.496 556.135 621.774 545.922C626.104 532.324 632.601 518.92 632.514 504.688C624.172 505.609 615.781 506.024 607.388 505.928C606.209 523.258 602.705 540.352 596.972 556.749C596.419 558.5 595.694 560.192 594.807 561.799C593.358 564.056 591.549 566.059 589.451 567.729C586.478 570.266 583.292 572.545 579.93 574.539C577.685 575.866 575.289 577.136 573.751 579.242C572.214 581.349 571.875 584.573 573.78 586.348Z" fill="black"/>
<path d="M595.579 583.303C597.95 582.454 600.228 581.367 602.378 580.057L613.256 573.926C614.239 573.289 615.334 572.846 616.483 572.62L617.782 582.322C618.107 584.703 618.28 587.502 616.483 589.096C615.841 589.608 615.105 589.99 614.317 590.221C610.369 591.585 606.11 591.614 601.931 591.744C589.097 592.155 576.133 593.655 563.487 591.405C561.943 591.13 560.268 590.683 559.337 589.457C558.276 588.014 558.579 585.922 559.604 584.458C560.727 583.066 562.158 581.952 563.783 581.204C567.002 579.473 570.344 578.001 573.686 576.522C573.893 576.4 574.137 576.359 574.372 576.407C574.697 576.515 574.798 576.912 574.885 577.244C575.469 579.61 577.375 581.478 579.548 582.597C579.576 582.597 590.772 584.833 595.579 583.303Z" fill="#3F3D56"/>
<path d="M580.998 596.447C582.594 597.89 585.033 597.854 587.199 597.695L597.066 596.974C604.905 596.396 613.011 595.747 619.926 592.018C620.657 591.683 621.306 591.19 621.824 590.575C622.374 589.631 622.66 588.558 622.654 587.466C623.588 576.781 625.714 566.234 628.992 556.021C633.322 542.423 639.819 529.02 639.732 514.787C639.732 514.441 639.732 514.065 639.732 513.755C639.609 509.297 638.823 504.89 638.339 500.453C637.538 493.03 637.617 485.549 637.675 478.09C637.613 475.166 637.816 472.242 638.281 469.354C638.736 467.01 640.447 464.658 639.4 462.595C637.372 458.591 630.017 457.12 626.061 456.976C620.734 456.788 615.494 458.18 610.347 459.565C608.781 459.991 607.142 460.445 605.959 461.549C604.371 463.035 603.916 465.365 603.858 467.537C603.584 477.167 609.135 486.126 609.575 495.742C609.654 497.474 609.575 499.349 610.585 500.792C611.252 501.578 611.976 502.313 612.751 502.992C614.916 505.366 614.981 508.944 614.83 512.161C614.765 513.459 614.692 514.758 614.606 516.056C613.427 533.387 609.924 550.48 604.19 566.878C603.637 568.628 602.912 570.32 602.025 571.927C600.576 574.184 598.767 576.187 596.669 577.857C593.696 580.395 590.51 582.673 587.148 584.667C584.903 585.994 582.507 587.264 580.969 589.37C579.432 591.477 579.093 594.672 580.998 596.447Z" fill="#FDA8A8"/>
<path d="M580.998 596.447C582.594 597.89 585.033 597.854 587.199 597.695L597.066 596.974C604.905 596.396 613.011 595.747 619.926 592.018C620.657 591.683 621.306 591.19 621.824 590.575C622.374 589.631 622.66 588.558 622.654 587.466C623.588 576.781 625.714 566.234 628.992 556.021C633.322 542.423 639.819 529.02 639.732 514.787C631.39 515.709 622.999 516.123 614.606 516.028C613.427 533.358 609.924 550.451 604.19 566.849C603.637 568.599 602.912 570.291 602.025 571.898C600.576 574.155 598.767 576.158 596.669 577.828C593.696 580.366 590.51 582.644 587.148 584.638C584.903 585.965 582.507 587.235 580.969 589.341C579.432 591.448 579.093 594.672 580.998 596.447Z" fill="#EEEFF3"/>
<path d="M602.797 593.403C605.168 592.554 607.446 591.466 609.597 590.157L620.474 584.025C621.457 583.389 622.552 582.946 623.701 582.719L625 592.422C625.325 594.802 625.498 597.601 623.701 599.195C623.059 599.708 622.323 600.09 621.535 600.321C617.587 601.684 613.328 601.713 609.149 601.843C596.315 602.254 583.351 603.755 570.705 601.504C569.161 601.23 567.486 600.782 566.555 599.556C565.494 598.113 565.797 596.021 566.822 594.557C567.945 593.165 569.376 592.052 571.001 591.304C574.221 589.572 577.563 588.101 580.905 586.622C581.111 586.5 581.355 586.459 581.59 586.506C581.915 586.615 582.016 587.011 582.103 587.343C582.687 589.709 584.593 591.578 586.766 592.696C586.794 592.696 597.99 594.932 602.797 593.403Z" fill="#3F3D56"/>
<path d="M567.002 303.827C570.518 299.498 570.611 293.453 570.525 287.899C570.525 285.734 570.46 283.498 570.38 281.298V281.247C570.283 277.204 569.856 273.175 569.103 269.2V269.2C568.723 267.293 568.217 265.414 567.587 263.574C568.063 263.465 568.54 263.364 569.031 263.278C576.597 261.785 584.382 261.785 591.948 263.278C593.255 263.538 596.561 263.48 598.445 264.122C598.981 264.25 599.448 264.578 599.751 265.038C600.119 265.81 599.361 268.046 598.813 270.03C598.511 270.924 598.341 271.857 598.307 272.8C598.38 273.686 598.515 274.566 598.712 275.433C599.051 277.027 599.498 278.607 599.708 280.223C600.076 282.979 599.751 285.785 599.931 288.562C600.112 291.34 600.913 294.261 603.028 296.072C590.74 297.125 578.635 299.73 567.002 303.827V303.827Z" fill="#FDA8A8"/>
<path opacity="0.1" d="M601.592 275.116C600.632 275.195 599.679 275.289 598.704 275.397C589.09 276.423 579.602 278.405 570.38 281.312V281.262L569.103 269.215C569.103 268.494 569.103 267.772 569.103 267.015C569.103 265.781 569.067 264.533 569.038 263.292C576.604 261.799 584.389 261.799 591.955 263.292C593.262 263.552 596.568 263.494 598.452 264.136C598.452 265.312 598.452 266.488 598.495 267.664C598.542 268.465 598.651 269.26 598.82 270.044V270.044C599.165 271.992 600.139 273.773 601.592 275.116V275.116Z" fill="black"/>
<path d="M583.38 278.427C598.13 278.427 610.087 266.477 610.087 251.736C610.087 236.995 598.13 225.045 583.38 225.045C568.63 225.045 556.673 236.995 556.673 251.736C556.673 266.477 568.63 278.427 583.38 278.427Z" fill="#FDA8A8"/>
<path d="M559.921 352.375C555.179 335.603 559.51 317.591 570.835 304.346C573.354 301.396 575.888 298.366 579.194 296.598C583.128 294.506 587.783 294.434 592.237 294.391C596.171 294.391 600.227 294.391 603.844 295.956C608.73 298.041 612.101 302.571 614.945 307.066C617.977 311.856 620.72 317.042 621.182 322.698C621.427 326.052 620.835 329.457 621.333 332.797C621.968 337.032 624.329 340.826 625.296 344.996C625.823 347.246 625.931 349.577 626.27 351.871C626.782 355.009 627.525 358.105 628.494 361.133C635.665 384.932 645.486 407.851 657.77 429.462C661.379 435.832 665.241 442.13 667.666 449.033C668.763 452.157 669.557 455.526 668.662 458.743C667.168 464.081 660.419 467.219 655.374 464.918C655.561 465.511 655.522 466.152 655.267 466.718C655.011 467.285 654.556 467.738 653.988 467.991C652.788 468.532 651.477 468.779 650.162 468.712L605.583 469.895C604.412 469.925 603.248 470.082 602.111 470.364C596.871 471.706 598.842 473.971 598.279 475.861C597.593 478.17 594.28 477.982 591.97 477.304C592.324 480.673 592.403 484.792 588.05 485.773C586.921 486.002 585.754 485.962 584.644 485.658C576.745 483.624 568.556 482.965 560.434 483.71C557.46 483.984 554.06 484.316 551.859 482.267C550.199 480.745 549.766 478.321 549.484 476.085C545.045 440.737 554.176 405.339 561.033 370.417C561.957 365.707 561.625 358.074 560.239 353.472L559.921 352.375Z" fill="#F75842"/>
<path d="M619.11 328.015C620.157 331.03 621.463 333.995 621.817 337.169C622.098 339.708 621.759 342.276 621.911 344.823C622.187 347.65 622.771 350.439 623.65 353.14C625.04 358.394 626.754 363.557 628.782 368.599C629.749 370.872 630.868 373.375 630.089 375.719C629.309 378.064 626.891 379.514 626.198 381.844C625.476 384.304 626.92 386.894 628.761 388.69C630.601 390.486 632.904 391.763 634.607 393.674C636.462 395.759 637.495 398.421 638.801 400.888C640.656 404.151 642.783 407.252 645.16 410.158L653.887 421.476C654.431 422.292 655.145 422.981 655.98 423.496C658.867 424.997 661.892 421.974 664.83 420.611C668.727 418.757 673.289 419.846 677.598 420.156C681.908 420.466 687.097 419.348 688.635 415.323C689.144 413.689 689.25 411.957 688.945 410.273C688.27 404.517 686.604 398.921 684.022 393.732C682.449 390.573 680.529 387.55 679.54 384.167C678.732 381.418 678.573 378.526 677.93 375.734C677.288 372.942 676.155 370.273 675.245 367.546C668.792 348.17 673.643 326.969 671.557 306.654C670.784 299.159 668.496 290.943 662.043 287.04C658.21 284.725 653.605 284.364 649.051 284.155L646.994 284.061L643.68 283.895C638.888 283.657 634.08 283.477 629.41 284.494C622.842 285.936 614.938 291.037 614.678 298.366C614.396 308.433 615.896 318.47 619.11 328.015Z" fill="#6C63FF"/>
<path opacity="0.1" d="M643.717 283.866C644.602 288.775 645.044 293.753 645.037 298.741C645.167 312.981 646.705 327.163 648.25 341.302L649.267 350.68C649.455 352.412 649.679 354.229 650.711 355.622C651.743 357.014 653.909 357.743 655.273 356.668C656.11 353.357 655.944 349.88 655.778 346.467C655.417 339.21 655.059 331.951 654.703 324.689C654.356 317.619 653.981 310.543 653.122 303.516C652.448 298.074 651.455 292.676 650.148 287.35C649.9 286.247 649.555 285.168 649.116 284.126L647.059 284.032L643.717 283.866Z" fill="black"/>
<path d="M596.553 289.969C592.129 289.334 587.495 289.01 583.294 290.546C579.28 292.025 576.076 295.062 573.188 298.258C571.22 300.317 569.592 302.677 568.367 305.248C565.905 310.903 566.865 317.425 568.367 323.412C572.459 339.903 580.587 355.809 593.63 366.695C597.601 369.919 601.828 372.814 606.269 375.351C612.043 378.735 618.006 381.844 624.394 383.799C626.177 384.347 628.075 384.809 629.901 384.419C631.727 384.03 633.452 382.551 633.51 380.682C623.044 374.803 613.66 367.207 604.342 359.647C601.787 357.678 599.395 355.507 597.189 353.155C593.883 349.439 591.551 344.952 588.346 341.151C585.459 337.739 581.85 334.86 579.685 330.958C578.326 328.292 577.416 325.421 576.992 322.46C575.924 316.422 575.722 310.009 578.118 304.36C580.515 298.712 586.008 294.074 592.143 294.175C595.29 294.225 598.286 295.473 601.187 296.692L619.449 304.397C619.225 304.296 620.496 301.129 620.438 300.689C620.265 299.311 620.02 299.289 618.995 298.243C617.248 296.497 614.534 295.271 612.318 294.254C607.296 292.078 601.986 290.635 596.553 289.969V289.969Z" fill="#6C63FF"/>
<path d="M560.203 246.686C565.413 245.529 570.235 243.044 574.199 239.472L570.38 259.498C574.184 257.753 577.873 255.768 581.424 253.554C581.937 262.715 581.193 272.086 577.815 280.613C574.437 289.139 568.208 296.772 559.849 300.559C567.269 301.8 573.932 296.476 580.536 292.876C585.142 290.373 593.009 292.948 598.048 291.433C602.321 290.178 606.709 289.082 610.564 286.838C617.724 282.661 619.348 270.463 620.799 262.311C622.25 254.16 620.929 245.72 618.518 237.784C617.716 234.974 616.63 232.253 615.277 229.662C613.418 226.259 610.872 223.279 607.802 220.91C604.732 218.541 601.203 216.834 597.439 215.897C593.674 214.96 589.757 214.813 585.933 215.467C582.109 216.12 578.463 217.559 575.224 219.692C568.569 224.071 562.397 230.513 557.316 236.623C556.594 237.467 553.613 240.468 554.602 241.73C555.807 243.26 562.881 238.903 564.079 238.311C563.733 239.617 561.582 246.347 560.203 246.686Z" fill="#FFD566"/>
<g opacity="0.1">
<path opacity="0.1" d="M590.237 480.002C589.108 480.231 587.942 480.191 586.831 479.887C578.932 477.853 570.743 477.194 562.621 477.939C559.647 478.213 556.247 478.545 554.046 476.496C552.386 474.974 551.953 472.55 551.671 470.314C547.232 434.966 556.363 399.568 563.22 364.646C564.144 359.936 563.812 352.303 562.426 347.701L562.101 346.583C559.429 337.046 559.587 326.938 562.556 317.49C557.631 328.455 556.699 340.796 559.921 352.375L560.246 353.494C561.632 358.096 561.964 365.757 561.04 370.439C554.205 405.361 545.074 440.781 549.491 476.107C549.773 478.343 550.213 480.767 551.866 482.289C554.031 484.316 557.467 483.984 560.441 483.731C568.563 482.987 576.753 483.646 584.651 485.679C585.762 485.984 586.929 486.023 588.058 485.795C591.609 484.994 592.208 482.101 592.121 479.237C591.545 479.604 590.907 479.863 590.237 480.002Z" fill="black"/>
<path opacity="0.1" d="M657.554 459.147C657.74 459.74 657.702 460.381 657.447 460.947C657.191 461.514 656.736 461.967 656.168 462.22C654.968 462.761 653.657 463.008 652.342 462.941L607.763 464.124C606.592 464.154 605.428 464.311 604.291 464.593C599.051 465.935 601.021 468.2 600.458 470.09C599.773 472.399 596.46 472.211 594.15 471.533C594.366 473.589 594.475 475.919 593.543 477.65C595.572 477.953 597.752 477.686 598.293 475.861C598.834 474.036 596.885 471.706 602.126 470.364C603.263 470.082 604.427 469.925 605.598 469.895L650.148 468.712C651.462 468.779 652.774 468.532 653.973 467.991C654.542 467.738 654.997 467.285 655.252 466.718C655.508 466.152 655.546 465.511 655.359 464.918C660.412 467.219 667.154 464.081 668.648 458.743C668.873 457.934 668.999 457.101 669.023 456.261C666.324 459.493 661.437 460.936 657.554 459.147Z" fill="black"/>
</g>
<path d="M597.752 308.407C601.586 316.555 604.976 324.904 607.907 333.418C610.275 340.278 612.361 347.485 611.574 354.698C610.787 361.912 606.522 369.198 599.592 371.47C596.647 372.437 593.493 372.444 590.396 372.516C582.979 372.69 575.578 373.288 568.229 374.305C564.809 374.871 561.361 375.254 557.9 375.452C553.006 375.611 548.113 374.846 543.233 375.243C535.337 375.885 527.837 379.571 519.911 379.571C518.945 379.631 517.978 379.453 517.096 379.052C515.653 378.273 515.01 376.585 514.519 375.027C513.415 371.506 512.549 367.467 514.418 364.285C516.721 360.368 521.954 359.582 526.494 359.236C536.715 358.514 546.948 358.009 557.193 357.721C565.934 357.476 575.404 357.144 582.182 351.618C582.639 351.291 583.013 350.861 583.272 350.363C583.528 349.518 583.497 348.613 583.185 347.788C580.499 337.296 579.346 326.471 579.764 315.65C579.718 314.679 579.969 313.718 580.486 312.894C581.099 312.234 581.896 311.772 582.774 311.567C588.825 309.627 595.304 309.446 601.454 311.048" fill="#FDA8A8"/>
<path d="M579.584 315.643C578.536 316.003 577.624 316.675 576.971 317.569C577.259 314.561 576.87 311.524 576.927 308.494C576.985 305.464 577.548 302.305 579.461 299.953C581.893 296.952 586.029 295.877 589.898 295.776C595.514 295.625 601.325 297.255 605.439 301.078C608.087 303.556 609.807 306.866 610.311 310.456C610.441 311.444 610.874 315.152 609.842 315.787C608.94 316.35 605.511 314.409 604.407 314.099C596.207 311.691 587.421 312.237 579.584 315.643Z" fill="#F75842"/>
<path opacity="0.1" d="M470.417 145.332C473.207 145.332 475.47 143.072 475.47 140.283C475.47 137.494 473.207 135.233 470.417 135.233C467.626 135.233 465.364 137.494 465.364 140.283C465.364 143.072 467.626 145.332 470.417 145.332Z" fill="#7FFC00"/>
<path opacity="0.1" d="M504.342 242.719C507.132 242.719 509.395 240.458 509.395 237.669C509.395 234.88 507.132 232.619 504.342 232.619C501.551 232.619 499.289 234.88 499.289 237.669C499.289 240.458 501.551 242.719 504.342 242.719Z" fill="#7FFC00"/>
<path opacity="0.1" d="M408.341 150.382C411.132 150.382 413.394 148.121 413.394 145.332C413.394 142.544 411.132 140.283 408.341 140.283C405.551 140.283 403.288 142.544 403.288 145.332C403.288 148.121 405.551 150.382 408.341 150.382Z" fill="#7FFC00"/>
<path opacity="0.1" d="M253.152 388.437C260.327 388.437 266.144 382.624 266.144 375.452C266.144 368.281 260.327 362.468 253.152 362.468C245.976 362.468 240.159 368.281 240.159 375.452C240.159 382.624 245.976 388.437 253.152 388.437Z" fill="#05FF00"/>
<path opacity="0.1" d="M776.465 174.188C779.255 174.188 781.518 171.927 781.518 169.138C781.518 166.349 779.255 164.088 776.465 164.088C773.674 164.088 771.412 166.349 771.412 169.138C771.412 171.927 773.674 174.188 776.465 174.188Z" fill="#7FFC00"/>
<path opacity="0.1" d="M782.239 254.261C791.408 254.261 798.841 246.832 798.841 237.669C798.841 228.506 791.408 221.077 782.239 221.077C773.071 221.077 765.638 228.506 765.638 237.669C765.638 246.832 773.071 254.261 782.239 254.261Z" fill="#05FF00"/>
<path opacity="0.1" d="M808.946 195.829C811.737 195.829 813.999 193.568 813.999 190.779C813.999 187.99 811.737 185.73 808.946 185.73C806.156 185.73 803.894 187.99 803.894 190.779C803.894 193.568 806.156 195.829 808.946 195.829Z" fill="#7FFC00"/>
<path opacity="0.1" d="M764.194 288.166C766.985 288.166 769.247 285.905 769.247 283.116C769.247 280.327 766.985 278.066 764.194 278.066C761.404 278.066 759.141 280.327 759.141 283.116C759.141 285.905 761.404 288.166 764.194 288.166Z" fill="#6C63FF"/>
<path opacity="0.1" d="M460.311 185.73C463.102 185.73 465.364 183.469 465.364 180.68C465.364 177.891 463.102 175.63 460.311 175.63C457.521 175.63 455.259 177.891 455.259 180.68C455.259 183.469 457.521 185.73 460.311 185.73Z" fill="#7FFC00"/>
<path opacity="0.1" d="M271.197 441.098C273.987 441.098 276.25 438.837 276.25 436.048C276.25 433.259 273.987 430.999 271.197 430.999C268.406 430.999 266.144 433.259 266.144 436.048C266.144 438.837 268.406 441.098 271.197 441.098Z" fill="#7FFC00"/>
<path opacity="0.1" d="M263.257 325.677C266.047 325.677 268.31 323.416 268.31 320.628C268.31 317.839 266.047 315.578 263.257 315.578C260.466 315.578 258.204 317.839 258.204 320.628C258.204 323.416 260.466 325.677 263.257 325.677Z" fill="#6C63FF"/>
<path opacity="0.1" d="M540.433 140.283C543.223 140.283 545.485 138.022 545.485 135.233C545.485 132.444 543.223 130.183 540.433 130.183C537.642 130.183 535.38 132.444 535.38 135.233C535.38 138.022 537.642 140.283 540.433 140.283Z" fill="#05FF00"/>
<path opacity="0.1" d="M557.034 185.73C559.825 185.73 562.087 183.469 562.087 180.68C562.087 177.891 559.825 175.63 557.034 175.63C554.244 175.63 551.981 177.891 551.981 180.68C551.981 183.469 554.244 185.73 557.034 185.73Z" fill="#05FF00"/>
<defs>
<linearGradient id="paint0_linear" x1="406.58" y1="605.305" x2="406.58" y2="215.306" gradientUnits="userSpaceOnUse">
<stop stop-color="#808080" stop-opacity="0.25"/>
<stop offset="0.54" stop-color="#808080" stop-opacity="0.12"/>
<stop offset="1" stop-color="#808080" stop-opacity="0.1"/>
</linearGradient>
<linearGradient id="paint1_linear" x1="130038" y1="307450" x2="130038" y2="97035.6" gradientUnits="userSpaceOnUse">
<stop stop-color="#808080" stop-opacity="0.25"/>
<stop offset="0.54" stop-color="#808080" stop-opacity="0.12"/>
<stop offset="1" stop-color="#808080" stop-opacity="0.1"/>
</linearGradient>
</defs>
</svg>
