<svg width="1151" height="771" viewBox="0 0 1151 771" fill="none" xmlns="http://www.w3.org/2000/svg">
<rect width="1151" height="771" fill="#E5E5E5"/>
<g opacity="0.2">
<path opacity="0.2" d="M398.435 708.703C399.013 711.072 399.782 713.391 400.733 715.637C415.52 709.83 430.469 704.265 445.582 698.941C445.454 698.313 445.326 697.654 445.167 697.005C443.644 690.315 440.395 684.14 435.742 679.097C429.7 672.716 421.913 669.632 414.339 671.514C406.765 673.397 401.265 679.841 398.755 688.317C396.878 694.969 396.768 701.995 398.435 708.703V708.703Z" fill="#3F3D56"/>
<path opacity="0.2" d="M419.681 696.017C432.662 693.119 440.041 676.694 436.162 659.332C432.283 641.969 418.615 630.244 405.634 633.142C392.652 636.041 385.274 652.465 389.153 669.828C393.031 687.19 406.699 698.916 419.681 696.017Z" fill="#3F3D56"/>
<path opacity="0.2" d="M410.571 657.716C423.553 654.817 430.932 638.393 427.053 621.031C423.174 603.668 409.506 591.943 396.525 594.841C383.543 597.74 376.164 614.164 380.043 631.527C383.922 648.889 397.59 660.614 410.571 657.716Z" fill="#3F3D56"/>
<path opacity="0.2" d="M401.444 619.438C414.425 616.54 421.804 600.115 417.925 582.753C414.046 565.39 400.378 553.665 387.397 556.563C374.415 559.462 367.037 575.886 370.916 593.249C374.794 610.611 388.462 622.336 401.444 619.438Z" fill="#3F3D56"/>
<path opacity="0.2" d="M392.316 581.149C405.297 578.251 412.676 561.826 408.797 544.464C404.918 527.102 391.25 515.376 378.269 518.275C365.287 521.173 357.909 537.598 361.788 554.96C365.666 572.322 379.334 584.048 392.316 581.149Z" fill="#3F3D56"/>
<path opacity="0.2" d="M410.339 265.798C412.552 260.835 414.422 255.725 415.934 250.506L352.108 255.525L418.636 239.435C421.815 222.71 421.413 205.501 417.456 188.943C413.986 174.284 407.767 160.416 399.127 148.075L321.259 217.677L388.67 135.292C361.15 105.919 319.525 91.9457 278.155 102.325C216.339 117.777 178.458 181.626 193.542 244.933C199.538 270.504 213.913 293.338 234.381 309.804C230.942 317.533 228.328 325.603 226.583 333.88L316.387 356.361L224.456 348.396C223.356 361.228 224.319 374.153 227.307 386.68C233.313 412.25 247.69 435.081 268.155 451.551C257.4 475.693 254.917 502.709 261.092 528.406C276.176 591.713 338.513 630.497 400.329 615.056C462.145 599.615 500.025 535.765 484.941 472.458C478.935 446.889 464.558 424.058 444.092 407.588C454.848 383.446 457.33 356.43 451.156 330.732C445.176 305.142 430.809 282.286 410.339 265.798Z" fill="#05FF00"/>
<path opacity="0.1" d="M227.328 386.638C233.334 412.207 247.711 435.038 268.177 451.508C257.421 475.65 254.938 502.666 261.113 528.364C276.197 591.671 338.534 630.455 400.35 615.013C462.166 599.572 500.047 535.723 484.962 472.416C478.956 446.846 464.579 424.015 444.114 407.545C454.475 384.298 224.264 373.802 227.328 386.638Z" fill="black"/>
</g>
<g opacity="0.2">
<path opacity="0.2" d="M685.324 697.016C684.936 699.784 684.783 702.58 684.866 705.374C703.411 705.672 722.027 706.296 740.714 707.246C740.842 706.512 740.97 705.768 741.076 705.013C742.281 697.215 741.381 689.238 738.47 681.904C734.619 672.525 727.438 665.814 718.45 664.517C709.461 663.22 700.695 667.643 694.366 675.534C689.492 681.762 686.37 689.178 685.324 697.016Z" fill="#3F3D56"/>
<path opacity="0.2" d="M747.53 660.46C750.427 640.31 740.293 622.182 724.894 619.969C709.495 617.756 694.663 632.297 691.766 652.446C688.868 672.596 699.003 690.724 714.402 692.937C729.801 695.15 744.633 680.609 747.53 660.46Z" fill="#3F3D56"/>
<path opacity="0.2" d="M753.939 615.864C756.836 595.715 746.701 577.586 731.303 575.374C715.904 573.161 701.072 587.701 698.175 607.851C695.277 628.001 705.412 646.129 720.811 648.342C736.209 650.555 751.041 636.014 753.939 615.864Z" fill="#3F3D56"/>
<path opacity="0.2" d="M760.346 571.28C763.243 551.13 753.109 533.002 737.71 530.789C722.311 528.576 707.479 543.117 704.582 563.266C701.684 583.416 711.819 601.544 727.218 603.757C742.617 605.97 757.449 591.429 760.346 571.28Z" fill="#3F3D56"/>
<path opacity="0.2" d="M766.765 526.686C769.662 506.536 759.528 488.408 744.129 486.195C728.73 483.982 713.898 498.523 711.001 518.672C708.104 538.822 718.238 556.95 733.637 559.163C749.036 561.376 763.868 546.835 766.765 526.686Z" fill="#3F3D56"/>
<path opacity="0.2" d="M887.079 232.491C891.588 228.183 895.79 223.563 899.652 218.666L828.135 196.206L907.269 208.17C917.243 192.73 923.961 175.419 927.014 157.295C930.067 139.171 929.389 120.615 925.023 102.761L810.817 142.577L919.194 84.6186C912.291 67.4343 901.922 51.855 888.734 38.8514C875.546 25.8478 859.82 15.6985 842.537 9.03563C825.254 2.3728 806.783 -0.660749 788.276 0.123967C769.769 0.908684 751.622 5.49485 734.965 13.5968C718.308 21.6987 703.499 33.1427 691.459 47.216C679.42 61.2893 670.408 77.6903 664.985 95.3972C659.563 113.104 657.846 131.738 659.941 150.137C662.037 168.536 667.899 186.307 677.165 202.342C670.158 209.035 663.892 216.462 658.474 224.494L746.459 287.535L649.964 238.957C639.813 258.97 634.814 281.198 635.42 303.628C636.025 326.059 642.216 347.985 653.432 367.421C635.108 384.886 622.069 407.154 615.808 431.677C609.546 456.201 610.313 481.991 618.022 506.099C625.731 530.207 640.071 551.66 659.401 568.005C678.731 584.35 702.272 594.928 727.332 598.528C752.392 602.129 777.96 598.607 801.113 588.366C824.265 578.124 844.067 561.577 858.256 540.615C872.444 519.653 880.446 495.122 881.346 469.828C882.246 444.534 876.008 419.498 863.346 397.581C885.245 376.708 899.49 349.083 903.795 319.142C908.099 289.202 902.211 258.684 887.079 232.491V232.491Z" fill="#05FF00"/>
<path opacity="0.1" d="M636.72 280.772C632.37 310.712 638.259 341.244 653.432 367.421C635.108 384.886 622.069 407.154 615.808 431.677C609.546 456.201 610.313 481.991 618.022 506.099C625.731 530.207 640.071 551.66 659.401 568.005C678.731 584.35 702.272 594.928 727.332 598.529C752.392 602.129 777.96 598.607 801.113 588.366C824.265 578.124 844.067 561.577 858.256 540.615C872.444 519.653 880.446 495.122 881.346 469.828C882.246 444.535 876.008 419.498 863.346 397.581C884.515 377.428 638.879 265.788 636.72 280.772Z" fill="black"/>
</g>
<path opacity="0.1" d="M575.5 771C893.34 771 1151 756.24 1151 738.033C1151 719.826 893.34 705.066 575.5 705.066C257.66 705.066 0 719.826 0 738.033C0 756.24 257.66 771 575.5 771Z" fill="#05FF00"/>
<path d="M951.756 724.751C966.62 724.751 978.669 722.432 978.669 719.572C978.669 716.711 966.62 714.393 951.756 714.393C936.892 714.393 924.842 716.711 924.842 719.572C924.842 722.432 936.892 724.751 951.756 724.751Z" fill="#7FFC00" fill-opacity="0.42"/>
<path d="M951.309 721.486C953.042 721.486 954.447 719.648 954.447 717.381C954.447 715.114 953.042 713.276 951.309 713.276C949.576 713.276 948.171 715.114 948.171 717.381C948.171 719.648 949.576 721.486 951.309 721.486Z" fill="#3F3D56"/>
<path d="M951.309 716.466C953.042 716.466 954.447 714.629 954.447 712.361C954.447 710.094 953.042 708.257 951.309 708.257C949.576 708.257 948.171 710.094 948.171 712.361C948.171 714.629 949.576 716.466 951.309 716.466Z" fill="#3F3D56"/>
<path d="M951.309 711.457C953.042 711.457 954.447 709.62 954.447 707.353C954.447 705.086 953.042 703.248 951.309 703.248C949.576 703.248 948.171 705.086 948.171 707.353C948.171 709.62 949.576 711.457 951.309 711.457Z" fill="#3F3D56"/>
<path d="M951.309 706.449C953.042 706.449 954.447 704.611 954.447 702.344C954.447 700.077 953.042 698.239 951.309 698.239C949.576 698.239 948.171 700.077 948.171 702.344C948.171 704.611 949.576 706.449 951.309 706.449Z" fill="#3F3D56"/>
<path d="M951.309 701.429C953.042 701.429 954.447 699.591 954.447 697.324C954.447 695.057 953.042 693.219 951.309 693.219C949.576 693.219 948.171 695.057 948.171 697.324C948.171 699.591 949.576 701.429 951.309 701.429Z" fill="#3F3D56"/>
<path d="M951.309 696.42C953.042 696.42 954.447 694.583 954.447 692.316C954.447 690.048 953.042 688.211 951.309 688.211C949.576 688.211 948.171 690.048 948.171 692.316C948.171 694.583 949.576 696.42 951.309 696.42Z" fill="#3F3D56"/>
<path d="M951.309 691.412C953.042 691.412 954.447 689.574 954.447 687.307C954.447 685.04 953.042 683.202 951.309 683.202C949.576 683.202 948.171 685.04 948.171 687.307C948.171 689.574 949.576 691.412 951.309 691.412Z" fill="#3F3D56"/>
<path d="M963.032 653.01C963.463 652.465 963.854 651.889 964.202 651.288L955.968 649.937L964.872 650.001C965.725 648.142 966.19 646.13 966.239 644.086C966.289 642.042 965.921 640.009 965.159 638.111L953.213 644.311L964.234 636.208C963.205 634.415 961.818 632.853 960.158 631.62C958.498 630.388 956.602 629.511 954.587 629.046C952.573 628.58 950.484 628.535 948.451 628.913C946.419 629.292 944.486 630.086 942.775 631.246C941.063 632.405 939.61 633.906 938.505 635.653C937.401 637.4 936.669 639.357 936.355 641.4C936.042 643.443 936.154 645.529 936.684 647.527C937.215 649.525 938.152 651.391 939.437 653.01C938.772 653.859 938.198 654.775 937.725 655.743L948.362 661.295L936.969 657.466C936.171 659.836 935.979 662.368 936.41 664.831C936.841 667.294 937.882 669.61 939.437 671.568C937.696 673.781 936.612 676.439 936.311 679.239C936.01 682.039 936.502 684.867 937.733 687.4C938.964 689.934 940.882 692.069 943.27 693.564C945.658 695.058 948.418 695.85 951.234 695.85C954.051 695.85 956.811 695.058 959.199 693.564C961.587 692.069 963.505 689.934 964.736 687.4C965.967 684.867 966.459 682.039 966.158 679.239C965.857 676.439 964.773 673.781 963.032 671.568C965.113 668.924 966.244 665.658 966.244 662.294C966.244 658.931 965.113 655.664 963.032 653.021V653.01Z" fill="#7FFC00"/>
<path d="M333.705 766.406C353.563 766.406 369.66 763.311 369.66 759.493C369.66 755.676 353.563 752.581 333.705 752.581C313.847 752.581 297.749 755.676 297.749 759.493C297.749 763.311 313.847 766.406 333.705 766.406Z" fill="#7FFC00" fill-opacity="0.25"/>
<path d="M333.099 762.035C335.413 762.035 337.29 759.583 337.29 756.558C337.29 753.534 335.413 751.082 333.099 751.082C330.784 751.082 328.907 753.534 328.907 756.558C328.907 759.583 330.784 762.035 333.099 762.035Z" fill="#3F3D56"/>
<path d="M333.099 755.335C335.413 755.335 337.29 752.883 337.29 749.859C337.29 746.834 335.413 744.382 333.099 744.382C330.784 744.382 328.907 746.834 328.907 749.859C328.907 752.883 330.784 755.335 333.099 755.335Z" fill="#3F3D56"/>
<path d="M333.099 748.636C335.413 748.636 337.29 746.184 337.29 743.159C337.29 740.134 335.413 737.682 333.099 737.682C330.784 737.682 328.907 740.134 328.907 743.159C328.907 746.184 330.784 748.636 333.099 748.636Z" fill="#3F3D56"/>
<path d="M333.099 741.947C335.413 741.947 337.29 739.495 337.29 736.47C337.29 733.445 335.413 730.993 333.099 730.993C330.784 730.993 328.907 733.445 328.907 736.47C328.907 739.495 330.784 741.947 333.099 741.947Z" fill="#3F3D56"/>
<path d="M333.099 735.247C335.413 735.247 337.29 732.795 337.29 729.77C337.29 726.745 335.413 724.293 333.099 724.293C330.784 724.293 328.907 726.745 328.907 729.77C328.907 732.795 330.784 735.247 333.099 735.247Z" fill="#3F3D56"/>
<path d="M333.099 728.547C335.413 728.547 337.29 726.095 337.29 723.07C337.29 720.046 335.413 717.594 333.099 717.594C330.784 717.594 328.907 720.046 328.907 723.07C328.907 726.095 330.784 728.547 333.099 728.547Z" fill="#3F3D56"/>
<path d="M333.099 721.858C335.413 721.858 337.29 719.406 337.29 716.381C337.29 713.357 335.413 710.904 333.099 710.904C330.784 710.904 328.907 713.357 328.907 716.381C328.907 719.406 330.784 721.858 333.099 721.858Z" fill="#3F3D56"/>
<path d="M348.779 670.557C349.346 669.826 349.865 669.059 350.332 668.26L339.343 666.452L351.236 666.548C352.38 664.066 353.005 661.376 353.071 658.644C353.136 655.911 352.642 653.195 351.619 650.66L335.662 658.934L350.374 648.172C348.989 645.801 347.132 643.739 344.918 642.115C342.703 640.491 340.178 639.34 337.5 638.731C334.822 638.123 332.047 638.071 329.348 638.579C326.649 639.087 324.083 640.144 321.81 641.684C319.536 643.224 317.603 645.215 316.131 647.532C314.658 649.85 313.678 652.446 313.25 655.158C312.822 657.87 312.957 660.641 313.644 663.299C314.332 665.957 315.559 668.446 317.248 670.61C316.36 671.746 315.593 672.972 314.961 674.269L329.248 681.713L314.015 676.608C312.943 679.764 312.673 683.137 313.23 686.423C313.788 689.709 315.154 692.805 317.206 695.431C314.881 698.389 313.435 701.94 313.033 705.68C312.632 709.42 313.291 713.197 314.935 716.58C316.58 719.963 319.143 722.816 322.332 724.811C325.522 726.807 329.208 727.865 332.971 727.865C336.733 727.865 340.42 726.807 343.609 724.811C346.799 722.816 349.362 719.963 351.006 716.58C352.651 713.197 353.31 709.42 352.909 705.68C352.507 701.94 351.061 698.389 348.736 695.431C351.513 691.896 353.023 687.532 353.023 683.037C353.023 678.542 351.513 674.177 348.736 670.642L348.779 670.557Z" fill="#99D55C"/>
<path d="M523.014 455.081C520.301 440.895 517.269 426.677 516.769 412.246C516.471 403.738 517.067 395.082 515.971 386.595C515.429 382.427 514.482 378.332 513.546 374.238L509.78 357.85C510.207 354.709 510.085 351.517 509.419 348.418C509.041 346.783 508.54 345.18 507.919 343.621C511.434 338.675 514.331 333.319 516.546 327.67C517.546 325.117 518.407 322.406 518.014 319.704C517.248 314.525 512.227 311.112 507.557 308.56C504.727 307.018 501.749 305.529 498.515 305.284C496.254 305.193 494.002 305.626 491.935 306.548C489.868 307.47 488.043 308.857 486.601 310.601C485.815 306.409 486.078 302.087 487.367 298.021C484.59 296.777 481.792 295.607 478.973 294.469C478.566 290.794 478.424 287.094 478.548 283.398C478.612 278.964 478.686 274.487 478.942 270.041C486.507 267.281 493.046 262.274 497.682 255.691C502.318 249.108 504.828 241.265 504.876 233.214C504.876 232.757 504.876 232.31 504.876 231.864C506.938 228.158 508.242 224.081 508.714 219.867C509.185 215.653 508.813 211.388 507.621 207.319C504.504 196.685 496.355 187.922 486.537 182.509C476.718 177.096 465.336 174.81 454.071 174.406C450.29 174.184 446.496 174.424 442.773 175.118C438.789 176.098 434.928 177.525 431.263 179.372C425.636 181.967 419.966 184.806 415.754 189.283C408.445 197.078 406.807 208.532 407.605 219.06C408.669 232.885 413.286 246.263 418.626 259.13C420.402 263.384 422.296 267.702 425.221 271.328C427.487 274.125 431.423 274.295 434.55 272.338C434.302 275.735 434.224 279.143 434.316 282.548C428.54 282.346 422.913 283.292 418.275 286.546C416.147 288.067 414.126 290.46 414.594 293.033C416.015 293.071 417.377 293.609 418.439 294.553C419.502 295.496 420.197 296.785 420.402 298.191C420.636 300.456 419.498 302.615 418.392 304.572C417.913 305.444 417.434 306.326 416.945 307.198C412.371 312.09 407.68 318.216 407.265 324.288C406.518 324.359 405.776 324.469 405.041 324.618C400.893 325.383 396.765 326.798 392.691 327.861L363.203 335.624L355.916 337.645L344.215 340.729C336.769 342.686 329.184 344.695 322.578 348.63C315.972 352.565 310.366 358.744 309.036 366.188C308.377 369.889 308.781 373.738 307.972 377.407C307.972 377.577 307.908 377.737 307.866 377.896C307.19 380.219 306.281 382.467 305.153 384.607C298.547 398.527 293.845 413.703 294.728 429.027C295.271 438.438 297.92 447.616 300.494 456.677C303.196 465.943 305.862 475.209 308.494 484.475C310.228 491.109 312.429 497.612 315.078 503.936C319.617 514.067 326.35 523.064 334.79 530.278C337.158 532.402 339.807 534.191 342.662 535.595C347.014 537.477 351.766 538.248 356.491 537.839C357.767 537.754 359.023 537.616 360.267 537.414C369.405 535.967 377.926 531.565 385.745 526.609C389.014 524.539 392.205 522.359 395.319 520.069C395.714 523.641 396.426 527.172 397.446 530.618C398.137 532.99 398.989 535.425 398.712 537.881C398.329 541.306 395.84 544.113 394.553 547.325C391.819 554.11 394.627 561.671 395.084 568.945C395.521 575.762 393.861 582.525 392.531 589.235C390.311 600.426 388.998 611.778 388.606 623.181C388.594 627.498 388.31 631.81 387.755 636.091C386.766 642.131 384.447 647.959 384.043 654.063C383.426 663.57 387.532 672.876 387.159 682.393C386.723 693.57 380.16 704.428 382.447 715.36C382.734 716.732 383.511 718.317 384.766 718.668L384.149 719.231C382.266 720.975 380.436 724.198 382.575 725.612C383.066 725.904 383.613 726.093 384.181 726.165C387.489 726.856 390.819 727.484 394.148 728.069C394.075 731.143 394.462 734.212 395.297 737.172C395.904 737.608 396.521 738.001 397.138 738.373C396.669 739.628 396.701 740.841 397.808 741.564C398.3 741.856 398.846 742.044 399.414 742.117C426.816 747.769 454.801 750.09 482.76 749.029C487.76 748.838 492.983 748.476 497.249 745.924C501.515 743.372 504.398 737.937 502.366 733.46C500.568 729.504 495.866 727.792 491.643 726.473L486.686 724.942C487.321 723.817 487.691 722.561 487.769 721.272C487.846 719.982 487.628 718.691 487.133 717.498C485.335 713.542 480.633 711.83 476.41 710.511L464.995 706.97C463.493 706.614 462.081 705.951 460.847 705.024C460.029 704.211 459.275 703.336 458.592 702.408C456.945 700.525 454.781 699.168 452.369 698.505C452.24 696.087 452.294 693.662 452.528 691.252L455.719 652.745C456.432 644.024 457.134 635.134 455.102 626.616C454.283 623.159 452.975 619.618 453.773 616.151C455.017 610.494 460.974 607.346 465.038 603.145C471.165 596.765 473.07 587.693 474.474 579.058C480.288 543.424 482.115 507.253 479.92 471.214C492.69 467.615 505.833 465.503 519.088 464.918C521.343 464.823 522.45 463.759 523.152 461.654C523.854 459.548 523.428 457.261 523.014 455.081ZM459.347 456.964C459.421 456.592 459.506 456.219 459.57 455.847L460.453 456.974L459.347 456.964Z" fill="url(#paint0_linear)"/>
<path d="M438.603 261.768C438.327 265.469 437.018 269.021 436.54 272.711C435.997 276.773 436.476 280.91 436.21 285.004C435.944 289.098 434.763 293.405 431.646 296.075C449.762 297.643 467.606 301.502 484.75 307.56C479.569 301.179 479.431 292.268 479.559 284.079C479.729 271.966 479.941 259.62 483.899 248.188C472.096 245.55 459.874 245.391 448.007 247.72C445.433 248.23 437.635 247.911 436.476 250.314C435.635 252.08 438.795 259.088 438.603 261.768Z" fill="#A1616A"/>
<path opacity="0.1" d="M438.603 261.768C438.327 265.469 437.018 269.021 436.54 272.711C435.997 276.773 436.476 280.91 436.21 285.004C435.944 289.098 434.763 293.405 431.646 296.075C449.762 297.643 467.606 301.502 484.75 307.56C479.569 301.179 479.431 292.268 479.559 284.079C479.729 271.966 479.941 259.62 483.899 248.188C472.096 245.55 459.874 245.391 448.007 247.72C445.433 248.23 437.635 247.911 436.476 250.314C435.635 252.08 438.795 259.088 438.603 261.768Z" fill="black"/>
<path d="M460.049 702.461C460.688 703.404 461.4 704.296 462.177 705.13C463.374 706.058 464.756 706.722 466.229 707.076L477.378 710.617C481.516 711.936 486.111 713.638 487.867 717.594C489.845 722.06 487.026 727.494 482.856 730.036C478.686 732.578 473.58 732.95 468.697 733.141C441.359 734.194 413.995 731.876 387.223 726.239C386.671 726.159 386.139 725.972 385.659 725.686C383.532 724.251 385.351 721.039 387.191 719.306C394.372 712.5 402.18 705.364 411.956 703.79C417.094 702.95 422.253 703.29 427.359 702.067C431.029 701.185 434.497 699.664 438.157 698.76C444.975 697.09 455.177 696.495 460.049 702.461Z" fill="#46455B"/>
<path opacity="0.1" d="M460.049 702.461C460.688 703.404 461.4 704.296 462.177 705.13C463.374 706.058 464.756 706.722 466.229 707.076L477.378 710.617C481.516 711.936 486.111 713.638 487.867 717.594C489.845 722.06 487.026 727.494 482.856 730.036C478.686 732.578 473.58 732.95 468.697 733.141C441.359 734.194 413.995 731.876 387.223 726.239C386.671 726.159 386.139 725.972 385.659 725.686C383.532 724.251 385.351 721.039 387.191 719.306C394.372 712.5 402.18 705.364 411.956 703.79C417.094 702.95 422.253 703.29 427.359 702.067C431.029 701.185 434.497 699.664 438.157 698.76C444.975 697.09 455.177 696.495 460.049 702.461Z" fill="black"/>
<path d="M404.073 461.93C398.572 476.442 398.234 492.405 403.116 507.137C399.403 506.733 397.797 511.753 397.893 515.496C398.025 520.707 398.815 525.881 400.244 530.895C400.925 533.277 401.754 535.701 401.488 538.147C401.105 541.572 398.68 544.379 397.414 547.58C394.755 554.354 397.489 561.905 397.946 569.168C398.372 575.985 396.744 582.738 395.436 589.438C393.268 600.616 391.988 611.949 391.606 623.33C391.598 627.643 391.318 631.951 390.766 636.229C389.808 642.27 387.574 648.087 387.149 654.18C386.542 663.666 390.553 672.971 390.191 682.479C389.766 693.634 383.34 704.481 385.585 715.446C385.904 716.988 386.766 718.806 388.351 718.827C404.392 719.029 419.381 714.574 435.252 716.902C436.869 680.192 438.444 643.312 445.677 607.272C452.06 575.187 462.879 543.465 461.868 510.753C461.283 492.047 456.836 473.702 454.134 455.177C437.175 451.413 419.428 453.806 404.073 461.93V461.93Z" fill="#BBBDC8"/>
<path opacity="0.1" d="M404.073 461.93C398.572 476.442 398.234 492.405 403.116 507.137C399.403 506.733 397.797 511.753 397.893 515.496C398.025 520.707 398.815 525.881 400.244 530.895C400.925 533.277 401.754 535.701 401.488 538.147C401.105 541.572 398.68 544.379 397.414 547.58C394.755 554.354 397.489 561.905 397.946 569.168C398.372 575.985 396.744 582.738 395.436 589.438C393.268 600.616 391.988 611.949 391.606 623.33C391.598 627.643 391.318 631.951 390.766 636.229C389.808 642.27 387.574 648.087 387.149 654.18C386.542 663.666 390.553 672.971 390.191 682.479C389.766 693.634 383.34 704.481 385.585 715.446C385.904 716.988 386.766 718.806 388.351 718.827C404.392 719.029 419.381 714.574 435.252 716.902C436.869 680.192 438.444 643.312 445.677 607.272C452.06 575.187 462.879 543.465 461.868 510.753C461.283 492.047 456.836 473.702 454.134 455.177C437.175 451.413 419.428 453.806 404.073 461.93V461.93Z" fill="black"/>
<path d="M474.942 718.413C475.581 719.356 476.292 720.248 477.069 721.082C478.267 722.01 479.649 722.673 481.122 723.028L492.271 726.569C496.409 727.888 501.004 729.589 502.759 733.545C504.738 738.012 501.919 743.446 497.749 745.988C493.579 748.529 488.473 748.902 483.59 749.093C456.252 750.146 428.887 747.828 402.116 742.191C401.563 742.111 401.032 741.923 400.552 741.638C398.425 740.203 400.244 736.991 402.084 735.258C409.265 728.451 417.073 721.316 426.849 719.742C431.987 718.902 437.146 719.242 442.252 718.019C445.922 717.136 449.39 715.616 453.049 714.712C459.868 713.042 470.07 712.447 474.942 718.413Z" fill="#46455B"/>
<path d="M409.605 462.983C405.499 468.3 404.286 475.319 404.839 481.976C405.392 488.633 407.637 495.025 409.839 501.331C406.914 504.021 407.52 508.658 407.903 512.614C409.296 527.311 404.19 541.976 404.935 556.715C405.243 562.915 406.594 569.03 406.914 575.23C407.265 582.004 406.403 588.778 405.595 595.51C400.43 638.605 397.589 681.946 397.084 725.346C397.084 729.345 397.021 733.407 398.148 737.236C405.882 742.925 415.594 743.691 424.955 741.564C434.316 739.437 442.858 734.694 451.252 730.015C455.85 727.636 460.21 724.822 464.272 721.613C465.515 720.734 466.434 719.471 466.889 718.019C467.783 713.765 461.868 711.84 458.475 709.086C453.539 705.077 453.613 697.654 454.124 691.316L457.209 652.861C457.911 644.152 458.592 635.272 456.613 626.764C455.805 623.319 454.56 619.778 455.305 616.311C456.517 610.675 462.347 607.527 466.315 603.326C472.314 596.945 474.165 587.895 475.548 579.282C482.066 538.416 483.452 496.897 479.676 455.688C471.857 458.399 462.591 456.921 454.347 457.559C446.103 458.197 437.912 460.952 429.561 461.175C422.604 461.334 413.881 457.495 409.605 462.983Z" fill="#BBBDC8"/>
<path d="M465.932 273.306C487.669 273.306 505.291 255.69 505.291 233.959C505.291 212.228 487.669 194.611 465.932 194.611C444.194 194.611 426.572 212.228 426.572 233.959C426.572 255.69 444.194 273.306 465.932 273.306Z" fill="#A1616A"/>
<path d="M488.175 298.68C475.563 292.889 462.412 288.351 448.911 285.132C439.401 282.867 428.54 281.505 420.594 287.195C418.466 288.716 416.541 291.108 416.998 293.682C418.4 293.728 419.74 294.271 420.779 295.214C421.818 296.157 422.487 297.438 422.668 298.829C422.902 301.083 421.796 303.242 420.711 305.21L411.53 322.225C409.771 325.29 408.26 328.49 407.009 331.796C405.158 337.198 404.754 342.983 404.361 348.683L403.297 364.125C402.637 373.855 401.967 383.628 402.85 393.338C403.51 400.665 405.041 408.024 403.999 415.308C403.158 421.168 400.68 426.666 399.286 432.43C396.669 443.277 397.861 455.166 392.787 465.12C394.847 464.169 397.173 463.959 399.371 464.525C414.775 467.364 426.891 479.519 441.848 484.167C445.624 478.658 450.741 474.596 454.964 469.47C458.105 465.627 460.184 461.03 460.996 456.134C464.187 460.388 466.9 463.706 468.804 468.64C469.143 469.788 469.723 470.851 470.506 471.756C472.516 473.713 475.825 472.958 478.516 472.139C491.71 468.16 505.351 465.849 519.12 465.259C521.333 465.163 522.407 464.099 523.099 461.994C523.79 459.888 523.407 457.612 522.992 455.443C520.344 441.267 517.386 427.07 516.897 412.66C516.599 404.153 517.184 395.528 516.11 387.042C515.578 382.884 514.652 378.79 513.737 374.706L506.142 340.963C505.717 339.08 503.695 337.847 502.834 336.113C499.345 329.052 492.675 323.948 489.228 316.865C486.625 311.146 486.249 304.661 488.175 298.68V298.68Z" fill="#46455B"/>
<path d="M432.955 249.708C432.909 249.157 433.039 248.606 433.327 248.134C433.748 247.693 434.275 247.367 434.859 247.188C436.445 246.435 437.742 245.186 438.554 243.629C439.366 242.073 439.649 240.295 439.359 238.563L443.082 237.787L443.199 224.824C448.73 221.761 456.273 224.079 461.474 220.474C464.4 218.432 465.9 214.965 467.687 211.881C469.474 208.797 472.133 205.692 475.686 205.437C474.465 208.544 473.941 211.881 474.152 215.213C474.364 218.545 475.305 221.79 476.91 224.717C480.635 222.833 483.745 219.926 485.877 216.337L487.728 226.972C487.766 227.627 488.046 228.246 488.515 228.705C489.483 229.418 490.792 228.524 491.643 227.642L496.462 222.909C498.49 227.997 499.88 233.315 500.6 238.744C508.514 231.066 510.972 218.73 507.929 208.138C504.887 197.546 496.919 188.773 487.324 183.36C477.729 177.947 466.602 175.671 455.592 175.267C451.896 175.051 448.187 175.29 444.55 175.979C440.647 176.961 436.871 178.388 433.295 180.233C427.795 182.817 422.243 185.657 418.136 190.123C410.988 197.908 409.381 209.35 410.169 219.9C411.232 233.725 415.722 247.071 420.945 259.917C422.679 264.171 424.53 268.478 427.391 272.105C431.699 277.56 442.284 273.03 440.933 262.246C439.997 254.547 432.955 257.514 432.955 249.708Z" fill="#3F3D56"/>
<path d="M447.848 460.367C434.572 487.484 414.186 510.491 388.861 526.939C381.213 531.884 372.905 536.286 363.959 537.733C362.735 537.935 361.512 538.073 360.267 538.158C355.654 538.54 351.018 537.754 346.789 535.872C343.989 534.462 341.398 532.673 339.088 530.554C330.809 523.311 324.231 514.331 319.823 504.255C317.231 497.932 315.081 491.436 313.387 484.816C310.777 475.556 308.174 466.294 305.579 457.028C303.036 447.967 300.473 438.8 299.941 429.378C299.079 414.075 303.675 398.921 310.132 385.021C311.233 382.881 312.12 380.637 312.781 378.322C312.781 378.162 312.855 378.003 312.887 377.833C313.653 374.164 313.259 370.325 313.951 366.624C315.248 359.18 320.738 353.012 327.184 349.088C333.63 345.163 341.013 343.153 348.342 341.197L359.757 338.123L366.841 336.22L395.659 328.467C399.648 327.404 403.68 325.989 407.733 325.277C412.254 324.426 412.222 324.873 412.573 329.297C413.222 337.315 413.009 345.195 414.7 353.139C416.307 360.722 419.136 368.028 421.264 375.472C426.636 394.263 427.529 414.043 431.763 433.132C432.731 437.481 434.072 442.118 437.571 444.83C441.582 448.02 448.337 448.807 449.401 453.805C449.794 456.028 448.805 458.304 447.848 460.367Z" fill="#6C63FF"/>
<path opacity="0.1" d="M363.959 537.69C362.735 537.892 361.512 538.03 360.267 538.115C355.657 538.511 351.022 537.739 346.789 535.872C343.989 534.462 341.398 532.673 339.088 530.554C330.809 523.311 324.231 514.331 319.823 504.255C317.231 497.932 315.081 491.436 313.387 484.815C310.777 475.556 308.174 466.294 305.579 457.028C303.036 447.967 300.473 438.8 299.941 429.378C299.079 414.075 303.675 398.921 310.132 385.021C311.233 382.881 312.12 380.637 312.781 378.322C312.781 378.162 312.855 378.003 312.887 377.833C330.248 380.885 351.076 414.085 361.82 457.591C369.735 490.122 370.075 520.079 363.959 537.69Z" fill="black"/>
<path opacity="0.1" d="M395.34 423.221L392.436 423.72C389.446 415.872 386.468 408.013 382.968 400.378C381.149 396.39 379.181 392.455 377.649 388.339C371.905 372.537 372.884 353.788 362.235 340.771C361.475 339.805 360.608 338.927 359.65 338.155L366.735 336.252C372.939 346.058 377.314 356.907 379.649 368.272C380.798 373.823 381.447 379.502 383.319 384.841C384.912 388.89 386.734 392.845 388.776 396.687C392.819 404.972 395.861 414.022 395.34 423.221Z" fill="black"/>
<path d="M423.615 303.402C431.263 296.851 441.699 293.257 451.603 294.894C457.432 295.841 462.847 298.467 468.07 301.275C478.25 306.677 488.281 312.898 495.621 321.778C500.023 327.379 503.677 333.527 506.493 340.07C507.874 342.928 508.944 345.926 509.684 349.013C512.28 361.03 505.908 372.973 499.77 383.628L487.962 404.11C482.537 413.522 477.069 422.997 470.006 431.26C466.751 435.067 463.176 438.587 459.613 442.107L443.965 457.549C443.683 457.88 443.315 458.127 442.901 458.261C442.559 458.279 442.218 458.223 441.9 458.097C441.582 457.97 441.296 457.776 441.061 457.527L435.891 453.412C440.653 450.123 445.078 446.372 449.103 442.214C455.868 435.216 461.432 427.166 466.963 419.148L484.175 394.199C489.207 386.893 494.462 378.853 493.898 370.006C493.632 365.752 492.037 361.753 490.366 357.85C487.409 350.91 484.197 344.079 480.729 337.358C476.835 329.818 472.58 322.374 466.974 316.004C461.368 309.634 454.283 304.306 446.124 301.998C443.691 301.203 441.112 300.956 438.571 301.275C432.976 302.2 428.997 307.007 425.455 311.473L414.668 325.298C412.211 328.435 409.956 332.072 409.807 326.117C409.552 317.62 418.147 308.868 423.615 303.402Z" fill="#6C63FF"/>
<path d="M426.955 396.666C429.083 404.855 432.221 414.149 440.103 417.255C445.688 419.456 452.23 417.669 457.06 414.064C461.889 410.459 465.315 405.376 468.463 400.239C471.129 395.624 474.066 391.17 477.261 386.904C483.569 378.992 492.154 372.717 496.409 363.508C497.664 360.764 498.536 357.829 499.962 355.192C501.485 352.76 503.207 350.459 505.11 348.311C510.008 342.245 513.924 335.449 516.716 328.169C517.695 325.628 518.535 322.905 518.152 320.215C517.397 315.036 512.493 311.633 507.929 309.091C505.153 307.549 502.249 306.05 499.089 305.816C494.473 305.454 489.93 307.943 487.09 311.59C484.356 315.363 482.828 319.875 482.707 324.533C482.388 330.201 483.494 336.092 481.644 341.452C480.665 343.952 479.312 346.29 477.633 348.386C471.658 356.378 464.262 363.202 455.815 368.517C455.584 364.494 454.711 360.534 453.23 356.787C452.422 354.724 436.572 356.787 434.508 357.127C430.423 357.723 422.508 358.191 419.934 362.083C417.36 365.975 420.551 372.515 421.594 376.439L426.955 396.666Z" fill="#A1616A"/>
<path d="M426.572 307.305C424.217 309.249 422.026 311.383 420.019 313.685C415.296 319.375 412.988 326.776 412.392 334.146C411.796 341.516 412.807 348.917 414.073 356.202C415.222 362.739 416.58 369.229 418.147 375.674C418.583 370.814 422.519 366.794 427.083 365.039C431.646 363.285 436.657 363.476 441.518 364.188C447.775 365.115 453.879 366.878 459.666 369.431L461.911 337.985C462.383 333.743 462.358 329.46 461.836 325.224C461.129 321.293 459.593 317.557 457.329 314.266C455.066 310.974 452.127 308.203 448.709 306.135C440.178 300.945 434.231 300.616 426.572 307.305Z" fill="#46455B"/>
<path d="M828.443 460.324C827.434 451.79 824.95 443.496 821.103 435.812C818.752 431.133 815.891 426.655 814.412 421.647C813.21 417.574 812.976 413.288 812.019 409.151C811.061 405.014 809.37 401.058 808.008 397.017C798.381 368.304 805.615 336.89 802.509 306.794C801.349 295.692 797.945 283.515 788.318 277.73C782.595 274.295 775.723 273.763 768.989 273.476L765.915 273.338L760.979 273.093C753.83 272.743 746.661 272.477 739.704 273.976C731.193 275.837 721.109 281.824 718.428 290.513C716.96 289.758 715.482 289.088 714.12 288.46C708.64 286.03 702.896 284.246 697.004 283.143C702.058 281.87 706.938 279.985 711.535 277.528C722.173 271.339 724.641 253.26 726.811 241.169C728.981 229.077 727.002 216.582 723.396 204.831C722.205 200.661 720.583 196.626 718.556 192.793C715.756 187.743 711.944 183.324 707.359 179.813C702.774 176.302 697.514 173.774 691.907 172.387C686.301 171 680.469 170.783 674.775 171.751C669.081 172.718 663.647 174.849 658.814 178.011C648.889 184.508 639.667 193.962 632.093 203.097C631.029 204.352 626.582 208.797 628.061 210.669C628.891 211.733 631.624 210.882 634.497 209.606C632.287 214.596 631.149 219.994 631.156 225.451C631.163 232.305 632.954 239.04 636.354 244.992C639.755 250.944 644.647 255.908 650.549 259.396L651.613 269.18V269.254C651.73 272.519 651.783 275.784 651.825 279.038C651.825 281.325 651.825 283.664 651.762 286.004C647.348 290.997 641.943 295.017 635.89 297.808C640.89 298.638 645.656 297.468 650.294 295.468C649.54 298.081 648.274 300.517 646.57 302.636C647.847 302.189 649.123 301.785 650.4 301.36C649.733 302.432 649.139 303.547 648.624 304.699C647.836 306.52 647.262 308.426 646.911 310.378C644.202 314.335 641.856 318.527 639.901 322.905V322.905C639.007 324.894 638.209 326.915 637.486 328.967V329.105C636.777 331.147 636.149 333.217 635.603 335.316C635.348 336.323 635.114 337.333 634.901 338.347C634.901 338.421 634.901 338.496 634.901 338.57C634.475 340.622 634.124 342.686 633.837 344.77C633.837 344.908 633.837 345.046 633.837 345.195C633.72 346.163 633.614 347.141 633.539 348.12C633.539 348.12 633.539 348.215 633.539 348.269C633.454 349.332 633.39 350.342 633.358 351.385C633.358 351.523 633.358 351.65 633.358 351.789C633.358 352.671 633.358 353.565 633.358 354.447V355.053C633.358 357.053 633.486 359.063 633.678 361.073C633.678 361.317 633.678 361.572 633.752 361.817C633.837 362.636 633.933 363.455 634.05 364.284C634.05 364.476 634.05 364.667 634.124 364.848C634.263 365.837 634.422 366.815 634.603 367.794C634.603 368.006 634.699 368.23 634.741 368.442C634.89 369.229 635.05 370.006 635.231 370.793L635.422 371.601C635.656 372.579 635.901 373.547 636.177 374.525C636.337 375.078 636.497 375.589 636.667 376.174C637.175 378.189 637.53 380.241 637.731 382.31L631.912 382.501C619.459 382.856 607.016 383.419 594.584 384.192C593.031 378.205 587.733 374.749 581.063 373.93C580.004 373.802 578.939 373.738 577.872 373.738V373.738C579.023 372.769 580.045 371.658 580.915 370.431C582.072 368.839 582.897 367.031 583.34 365.114C581.626 366.089 580.127 367.402 578.936 368.974C578.542 369.506 578.191 370.037 577.872 370.527V367.336C577.874 367.269 577.861 367.202 577.836 367.139C577.811 367.077 577.774 367.02 577.726 366.972C577.678 366.924 577.621 366.887 577.559 366.862C577.496 366.837 577.429 366.824 577.362 366.826H576.298C576.23 366.824 576.163 366.837 576.101 366.862C576.038 366.887 575.981 366.924 575.933 366.972C575.886 367.02 575.848 367.077 575.823 367.139C575.798 367.202 575.786 367.269 575.787 367.336V373.834H575.574H575.213C574.511 373.898 573.83 373.983 573.16 374.11C565.915 375.461 560.607 380.108 560.607 387.935C560.609 390.4 561.147 392.835 562.183 395.071C563.218 397.307 564.728 399.292 566.607 400.888C566.919 403.326 567.471 405.727 568.256 408.056C568.99 410.363 569.947 412.873 572.096 414.022C573.409 414.617 574.848 414.88 576.287 414.787C588.116 414.787 599.307 409.332 611.083 408.407C618.359 407.822 625.667 408.949 632.965 408.726C634.029 408.726 635.092 408.619 636.156 408.534C626.178 457.931 614.104 507.956 620.412 557.853C620.827 561.171 621.476 564.765 623.955 567.02C627.242 570.019 632.305 569.53 636.72 569.147C648.835 568.042 661.049 569.017 672.835 572.029C674.492 572.487 676.234 572.549 677.92 572.21C678.28 572.128 678.635 572.025 678.984 571.901L679.281 571.784C679.505 571.699 679.718 571.614 679.92 571.518L680.228 571.359L680.749 571.04C680.835 570.976 680.93 570.923 681.005 570.859C681.19 570.732 681.364 570.589 681.526 570.434L681.675 570.306C681.874 570.111 682.062 569.905 682.239 569.689L682.366 569.498C682.489 569.338 682.603 569.171 682.707 568.998C682.76 568.913 682.813 568.828 682.856 568.743C682.898 568.658 683.026 568.424 683.1 568.264C683.175 568.105 683.185 568.073 683.217 567.977C683.249 567.881 683.356 567.626 683.419 567.445C683.483 567.265 683.42 567.275 683.505 567.179C683.59 567.084 683.653 566.648 683.707 566.382V566.212C683.707 565.988 683.792 565.754 683.824 565.531C683.856 565.308 683.824 565.297 683.824 565.18C683.824 565.063 683.824 564.829 683.824 564.659V564.276C683.824 564.106 683.824 563.936 683.824 563.766V562.819C683.824 562.713 683.824 562.596 683.824 562.479C683.824 561.533 683.717 560.575 683.622 559.661C684.382 559.882 685.157 560.049 685.941 560.161V560.161C686.672 560.277 687.413 560.33 688.153 560.32H688.26C688.611 560.32 688.962 560.32 689.323 560.235C689.632 560.188 689.937 560.124 690.238 560.044H690.377C690.655 559.961 690.925 559.855 691.185 559.725L691.313 559.65C691.534 559.527 691.744 559.385 691.94 559.225L692.036 559.15C692.235 558.965 692.414 558.758 692.568 558.534L692.664 558.374C692.821 558.118 692.946 557.843 693.036 557.555C693.642 555.503 692.259 553.184 694.472 551.302C696.6 558.119 698.727 564.946 699.078 571.997C699.195 574.57 699.078 577.314 700.589 579.441C701.572 580.602 702.638 581.69 703.78 582.695C707.035 586.215 707.11 591.522 706.886 596.286C706.791 598.211 706.684 600.136 706.546 602.061C704.788 627.747 699.564 653.077 691.015 677.363C690.182 679.947 689.091 682.441 687.76 684.807C685.601 688.157 682.901 691.125 679.771 693.592C675.336 697.357 670.584 700.733 665.569 703.684C663.008 705.038 660.588 706.644 658.346 708.48C658.261 708.235 658.166 708.001 658.102 707.746C657.985 707.257 657.825 706.683 657.346 706.502C656.983 706.419 656.602 706.48 656.283 706.672C651.294 708.863 646.304 711.053 641.507 713.616C639.085 714.72 636.951 716.368 635.273 718.434C633.741 720.561 633.284 723.751 634.869 725.878C636.263 727.739 638.762 728.356 641.071 728.77C644.028 729.291 646.996 729.664 649.964 729.94C648.439 730.833 647.105 732.019 646.039 733.428C644.507 735.555 644.049 738.746 645.634 740.872C647.028 742.733 649.528 743.35 651.836 743.765C670.697 747.094 690.036 744.828 709.184 744.265C715.407 744.063 721.768 744.02 727.662 742C728.824 741.656 729.908 741.089 730.853 740.33C733.534 737.969 733.268 733.822 732.8 730.302L730.853 715.924C730.566 715.924 730.289 716.02 730.013 716.083C731.644 702.577 734.568 689.258 738.746 676.311C745.235 656.158 754.894 636.304 754.767 615.215C754.767 614.705 754.767 614.152 754.767 613.684C754.586 607.08 753.405 600.55 752.639 593.978C751.437 582.982 751.575 571.891 751.65 560.841C751.557 556.509 751.859 552.177 752.554 547.899C752.554 547.75 752.618 547.612 752.65 547.463L770.319 546.995C772.277 547.094 774.23 546.73 776.021 545.932C776.868 545.56 777.547 544.889 777.928 544.046C778.309 543.204 778.365 542.251 778.084 541.37C785.616 544.783 795.69 540.136 797.913 532.224C798.068 531.667 798.192 531.103 798.285 530.533C798.28 530.491 798.28 530.448 798.285 530.405C798.36 529.874 798.413 529.342 798.434 528.821C798.434 528.736 798.434 528.64 798.434 528.555C798.545 524.902 797.978 521.261 796.764 517.814C793.147 507.573 787.403 498.247 781.999 488.814C779.212 483.933 776.51 478.988 773.883 474.021L776.191 476.988C777.001 478.199 778.065 479.218 779.308 479.977C783.616 482.199 788.126 477.722 792.509 475.659C798.328 472.915 805.136 474.532 811.561 474.989C817.986 475.446 825.731 473.787 828.029 467.832C828.773 465.4 828.916 462.823 828.443 460.324V460.324ZM717.673 300.499C717.673 302.774 717.822 305.082 718.003 307.4C715.844 303.873 713.35 300.561 710.556 297.51L717.673 300.499Z" fill="url(#paint1_linear)"/>
<path d="M578.691 370.888C579.869 369.33 581.349 368.024 583.042 367.049C582.61 368.965 581.796 370.773 580.649 372.366C578.798 374.887 576.851 376.62 576.308 376.205C575.766 375.791 576.819 373.409 578.691 370.888Z" fill="#99D55C"/>
<path opacity="0.1" d="M578.925 371.08C579.786 369.921 580.871 368.948 582.117 368.219C581.793 369.636 581.189 370.974 580.34 372.154C578.957 374.025 577.51 375.344 577.149 375.014C576.787 374.685 577.542 372.951 578.925 371.08Z" fill="black"/>
<path d="M576.106 368.772H577.17C577.237 368.772 577.304 368.785 577.365 368.811C577.427 368.836 577.484 368.874 577.531 368.921C577.579 368.969 577.616 369.025 577.642 369.087C577.668 369.149 577.681 369.215 577.681 369.282V381.331H575.66V369.282C575.659 369.157 575.703 369.036 575.786 368.942C575.868 368.848 575.982 368.788 576.106 368.772V368.772Z" fill="#F6987E"/>
<path d="M594.648 389.839C594.648 394.352 592.855 398.679 589.663 401.87C586.471 405.061 582.142 406.854 577.627 406.854C573.113 406.854 568.784 405.061 565.592 401.87C562.4 398.679 560.607 394.352 560.607 389.839C560.607 382.044 565.851 377.428 573.011 376.078C574.533 375.797 576.079 375.658 577.627 375.663C578.694 375.662 579.76 375.726 580.819 375.855C588.691 376.833 594.648 381.533 594.648 389.839Z" fill="#FC4A4A"/>
<path opacity="0.1" d="M580.819 375.854C580.51 376.439 578.84 376.918 576.819 376.918C575.5 377.014 574.18 376.738 573.011 376.12C574.534 375.84 576.079 375.701 577.628 375.706C578.693 375.69 579.759 375.74 580.819 375.854Z" fill="black"/>
<path opacity="0.1" d="M580.468 406.45C575.954 406.45 571.624 404.657 568.433 401.466C565.241 398.275 563.447 393.948 563.447 389.435C563.447 381.778 568.5 377.194 575.457 375.759C574.637 375.821 573.82 375.928 573.011 376.078C565.852 377.428 560.607 382.044 560.607 389.839C560.607 394.352 562.4 398.679 565.592 401.87C568.784 405.061 573.113 406.854 577.628 406.854C578.913 406.856 580.195 406.71 581.447 406.418C581.117 406.439 580.819 406.45 580.468 406.45Z" fill="black"/>
<path d="M655.496 721.39C657.847 723.517 661.442 723.464 664.633 723.23L679.175 722.166C690.728 721.316 702.674 720.359 712.865 714.861C713.943 714.367 714.899 713.641 715.662 712.734C716.473 711.343 716.895 709.76 716.886 708.15C718.262 692.399 721.395 676.85 726.226 661.795C732.608 641.749 742.182 621.99 742.055 601.008C742.055 600.497 742.055 599.944 742.055 599.487C741.874 592.915 740.714 586.417 740.002 579.877C738.821 568.934 738.938 557.906 739.023 546.91C738.932 542.599 739.231 538.289 739.916 534.032C740.587 530.576 743.108 527.109 741.565 524.067C738.576 518.165 727.736 515.996 721.907 515.783C714.056 515.507 706.333 517.559 698.749 519.601C696.44 520.228 694.025 520.898 692.281 522.525C689.941 524.716 689.27 528.151 689.185 531.352C688.781 545.549 696.961 558.757 697.61 572.933C697.727 575.485 697.61 578.25 699.1 580.377C700.082 581.535 701.149 582.619 702.291 583.62C705.482 587.119 705.578 592.394 705.355 597.137C705.259 599.051 705.152 600.965 705.025 602.879C703.287 628.427 698.124 653.626 689.675 677.799C688.86 680.38 687.791 682.874 686.483 685.244C684.349 688.57 681.682 691.523 678.59 693.985C674.208 697.726 669.514 701.084 664.559 704.024C661.251 705.981 657.719 707.852 655.453 710.958C653.187 714.063 652.687 718.774 655.496 721.39Z" fill="#FDA8A8"/>
<path opacity="0.1" d="M655.496 721.39C657.847 723.517 661.442 723.464 664.633 723.23L679.175 722.166C690.728 721.316 702.674 720.359 712.865 714.861C713.943 714.367 714.899 713.641 715.662 712.734C716.473 711.343 716.895 709.76 716.886 708.15C718.262 692.399 721.395 676.85 726.226 661.795C732.608 641.749 742.182 621.99 742.055 601.008C742.055 600.497 742.055 599.944 742.055 599.487C741.874 592.915 740.714 586.417 740.002 579.877C738.821 568.934 738.938 557.906 739.023 546.91C738.932 542.599 739.231 538.289 739.916 534.032C740.587 530.576 743.108 527.109 741.565 524.067C738.576 518.165 727.736 515.996 721.907 515.783C714.056 515.507 706.333 517.559 698.749 519.601C696.44 520.228 694.025 520.898 692.281 522.525C689.941 524.716 689.27 528.151 689.185 531.352C688.781 545.549 696.961 558.757 697.61 572.933C697.727 575.485 697.61 578.25 699.1 580.377C700.082 581.535 701.149 582.619 702.291 583.62C705.482 587.119 705.578 592.394 705.355 597.137C705.259 599.051 705.152 600.965 705.025 602.879C703.287 628.427 698.124 653.626 689.675 677.799C688.86 680.38 687.791 682.874 686.483 685.244C684.349 688.57 681.682 691.523 678.59 693.985C674.208 697.726 669.514 701.084 664.559 704.024C661.251 705.981 657.719 707.852 655.453 710.958C653.187 714.063 652.687 718.774 655.496 721.39Z" fill="black"/>
<path d="M655.496 721.39C657.847 723.517 661.442 723.464 664.633 723.23L679.175 722.166C690.728 721.316 702.674 720.359 712.865 714.861C713.943 714.367 714.899 713.641 715.663 712.734C716.473 711.343 716.895 709.76 716.886 708.15C718.262 692.399 721.395 676.85 726.226 661.794C732.608 641.748 742.182 621.99 742.055 601.008C729.76 602.367 717.394 602.978 705.025 602.837C703.287 628.385 698.124 653.583 689.675 677.757C688.86 680.338 687.791 682.831 686.483 685.201C684.349 688.527 681.682 691.481 678.59 693.943C674.208 697.683 669.514 701.042 664.559 703.981C661.251 705.938 657.719 707.81 655.453 710.915C653.187 714.02 652.687 718.774 655.496 721.39Z" fill="#EEEFF3"/>
<path opacity="0.1" d="M655.496 721.39C657.847 723.517 661.442 723.464 664.633 723.23L679.175 722.166C690.728 721.316 702.674 720.359 712.865 714.861C713.943 714.367 714.899 713.641 715.663 712.734C716.473 711.343 716.895 709.76 716.886 708.15C718.262 692.399 721.395 676.85 726.226 661.794C732.608 641.748 742.182 621.99 742.055 601.008C729.76 602.367 717.394 602.978 705.025 602.837C703.287 628.385 698.124 653.583 689.675 677.757C688.86 680.338 687.791 682.831 686.483 685.201C684.349 688.527 681.682 691.481 678.59 693.943C674.208 697.683 669.514 701.042 664.559 703.981C661.251 705.938 657.719 707.81 655.453 710.915C653.187 714.02 652.687 718.774 655.496 721.39Z" fill="black"/>
<path d="M687.621 716.902C691.115 715.651 694.473 714.047 697.642 712.117L713.673 703.077C715.122 702.14 716.735 701.487 718.428 701.153L720.343 715.456C720.822 718.965 721.077 723.092 718.428 725.442C717.482 726.197 716.398 726.76 715.237 727.101C709.418 729.111 703.142 729.153 696.983 729.345C678.069 729.951 658.963 732.163 640.326 728.845C638.05 728.441 635.582 727.781 634.21 725.974C632.646 723.847 633.093 720.763 634.603 718.604C636.259 716.552 638.367 714.91 640.762 713.808C645.507 711.255 650.432 709.086 655.357 706.906C655.661 706.726 656.022 706.665 656.368 706.736C656.847 706.895 656.995 707.48 657.123 707.969C657.985 711.457 660.793 714.212 663.995 715.86C664.038 715.86 680.537 719.157 687.621 716.902Z" fill="#3F3D56"/>
<path d="M666.133 736.278C668.484 738.405 672.08 738.352 675.271 738.118L689.813 737.055C701.365 736.204 713.311 735.247 723.502 729.749C724.581 729.256 725.537 728.529 726.3 727.622C727.11 726.231 727.533 724.648 727.523 723.038C728.9 707.287 732.033 691.739 736.863 676.683C743.246 656.637 752.82 636.878 752.692 615.896C752.692 615.386 752.692 614.833 752.692 614.375C752.511 607.803 751.352 601.306 750.639 594.765C749.458 583.822 749.575 572.795 749.66 561.798C749.569 557.488 749.869 553.177 750.554 548.92C751.224 545.464 753.745 541.997 752.203 538.956C749.214 533.053 738.374 530.884 732.544 530.671C724.694 530.395 716.971 532.447 709.386 534.489C707.078 535.116 704.663 535.786 702.918 537.414C700.578 539.604 699.908 543.039 699.823 546.24C699.419 560.437 707.599 573.645 708.248 587.821C708.365 590.373 708.248 593.138 709.737 595.265C710.72 596.423 711.786 597.508 712.929 598.509C716.12 602.007 716.216 607.282 715.992 612.025C715.896 613.939 715.79 615.853 715.662 617.768C713.925 643.316 708.762 668.514 700.312 692.688C699.498 695.269 698.429 697.762 697.121 700.132C694.987 703.458 692.32 706.411 689.228 708.873C684.846 712.614 680.152 715.973 675.197 718.912C671.888 720.869 668.357 722.741 666.091 725.846C663.825 728.951 663.325 733.662 666.133 736.278Z" fill="#FDA8A8"/>
<path d="M666.133 736.278C668.484 738.405 672.08 738.352 675.271 738.118L689.813 737.055C701.365 736.204 713.312 735.247 723.502 729.749C724.581 729.256 725.537 728.529 726.3 727.622C727.11 726.231 727.533 724.648 727.523 723.038C728.9 707.287 732.033 691.739 736.863 676.683C743.246 656.637 752.82 636.878 752.692 615.896C740.398 617.255 728.031 617.866 715.662 617.725C713.925 643.273 708.762 668.472 700.312 692.645C699.498 695.226 698.429 697.72 697.121 700.089C694.987 703.416 692.32 706.369 689.228 708.831C684.846 712.572 680.152 715.93 675.197 718.87C671.888 720.826 668.357 722.698 666.091 725.803C663.825 728.909 663.325 733.662 666.133 736.278Z" fill="#EEEFF3"/>
<path d="M698.259 731.791C701.753 730.539 705.11 728.936 708.28 727.005L724.311 717.966C725.759 717.028 727.373 716.375 729.066 716.041L730.981 730.344C731.459 733.854 731.715 737.98 729.066 740.33C728.12 741.085 727.036 741.649 725.875 741.989C720.056 743.999 713.78 744.042 707.62 744.233C688.707 744.839 669.601 747.051 650.964 743.733C648.687 743.329 646.22 742.67 644.847 740.862C643.284 738.735 643.73 735.651 645.241 733.492C646.897 731.44 649.005 729.799 651.4 728.696C656.144 726.144 661.07 723.974 665.995 721.794C666.299 721.614 666.659 721.554 667.006 721.624C667.484 721.784 667.633 722.369 667.761 722.858C668.623 726.346 671.431 729.1 674.633 730.749C674.675 730.749 691.174 734.045 698.259 731.791Z" fill="#3F3D56"/>
<path d="M645.507 304.901C650.687 298.521 650.826 289.609 650.698 281.42C650.698 278.23 650.602 274.933 650.485 271.69V271.615C650.341 265.654 649.712 259.715 648.602 253.856V253.856C648.043 251.044 647.297 248.273 646.368 245.561C647.071 245.401 647.773 245.252 648.496 245.125C659.647 242.923 671.12 242.923 682.271 245.125C684.196 245.508 689.068 245.423 691.845 246.369C692.635 246.558 693.324 247.041 693.77 247.72C694.313 248.858 693.196 252.154 692.387 255.079C691.943 256.397 691.692 257.772 691.642 259.162C691.75 260.469 691.949 261.766 692.238 263.044C692.738 265.394 693.398 267.723 693.706 270.105C694.249 274.168 693.77 278.304 694.036 282.399C694.302 286.493 695.483 290.8 698.599 293.469C680.49 295.021 662.65 298.863 645.507 304.901V304.901Z" fill="#FDA8A8"/>
<path opacity="0.1" d="M696.483 262.576C695.068 262.693 693.664 262.831 692.228 262.991C678.058 264.503 664.075 267.424 650.485 271.711V271.637L648.602 253.877C648.602 252.814 648.602 251.75 648.602 250.633C648.602 248.815 648.549 246.975 648.507 245.146C659.657 242.945 671.131 242.945 682.281 245.146C684.207 245.529 689.079 245.444 691.855 246.39C691.855 248.124 691.855 249.857 691.919 251.591C691.989 252.771 692.149 253.944 692.398 255.1V255.1C692.907 257.971 694.341 260.597 696.483 262.576V262.576Z" fill="black"/>
<path d="M669.644 267.457C691.381 267.457 709.003 249.841 709.003 228.11C709.003 206.379 691.381 188.762 669.644 188.762C647.906 188.762 630.284 206.379 630.284 228.11C630.284 249.841 647.906 267.457 669.644 267.457Z" fill="#FDA8A8"/>
<path d="M635.071 376.471C628.082 351.746 634.465 325.192 651.155 305.667C654.868 301.317 658.602 296.851 663.474 294.245C669.271 291.161 676.133 291.055 682.696 290.991C688.494 290.991 694.472 290.991 699.802 293.299C707.003 296.372 711.971 303.051 716.162 309.676C720.63 316.737 724.673 324.384 725.353 332.721C725.715 337.666 724.843 342.686 725.577 347.609C726.513 353.852 729.992 359.445 731.417 365.592C732.194 368.91 732.353 372.345 732.853 375.727C733.606 380.353 734.702 384.917 736.129 389.382C746.699 424.465 761.172 458.253 779.276 490.111C784.595 499.502 790.286 508.785 793.86 518.963C795.477 523.567 796.647 528.534 795.328 533.277C793.126 541.146 783.18 545.772 775.744 542.38C776.019 543.254 775.963 544.199 775.587 545.034C775.21 545.87 774.539 546.537 773.702 546.91C771.934 547.708 770.001 548.073 768.064 547.974L702.365 549.718C700.64 549.761 698.924 549.993 697.249 550.409C689.526 552.387 692.43 555.726 691.6 558.512C690.589 561.915 685.707 561.639 682.303 560.639C682.824 565.606 682.941 571.678 676.526 573.124C674.862 573.461 673.143 573.403 671.505 572.954C659.865 569.956 647.796 568.985 635.826 570.083C631.444 570.487 626.433 570.976 623.189 567.956C620.742 565.712 620.104 562.139 619.689 558.842C613.147 506.733 626.604 454.55 636.709 403.068C638.071 396.124 637.582 384.873 635.539 378.088L635.071 376.471Z" fill="#F75842"/>
<path d="M722.3 340.559C723.843 345.004 725.768 349.375 726.289 354.054C726.704 357.797 726.204 361.583 726.428 365.337C726.836 369.505 727.695 373.616 728.991 377.599C731.039 385.344 733.565 392.955 736.555 400.388C737.98 403.738 739.629 407.428 738.48 410.885C737.331 414.341 733.768 416.478 732.747 419.913C731.683 423.54 733.81 427.357 736.523 430.005C739.236 432.653 742.629 434.536 745.139 437.354C747.873 440.427 749.395 444.351 751.32 447.988C754.054 452.799 757.189 457.37 760.692 461.654L773.553 478.339C774.355 479.542 775.407 480.558 776.638 481.317C780.893 483.529 785.35 479.073 789.68 477.063C795.424 474.33 802.147 475.936 808.498 476.393C814.848 476.85 822.497 475.202 824.763 469.268C825.513 466.86 825.67 464.306 825.22 461.824C824.225 453.338 821.77 445.089 817.965 437.439C815.646 432.781 812.817 428.325 811.359 423.337C810.168 419.286 809.934 415.021 808.987 410.906C808.04 406.79 806.37 402.856 805.03 398.836C795.52 370.271 802.668 339.017 799.594 309.07C798.456 298.021 795.084 285.908 785.573 280.155C779.925 276.741 773.138 276.209 766.426 275.901L763.394 275.763L758.511 275.518C751.448 275.167 744.363 274.901 737.48 276.401C727.8 278.528 716.152 286.046 715.769 296.851C715.352 311.691 717.564 326.488 722.3 340.559Z" fill="#6C63FF"/>
<path opacity="0.1" d="M758.564 275.476C759.87 282.712 760.521 290.051 760.511 297.404C760.702 318.396 762.968 339.304 765.245 360.147L766.745 373.972C767.021 376.524 767.351 379.204 768.872 381.257C770.394 383.309 773.585 384.383 775.595 382.799C776.829 377.918 776.585 372.792 776.34 367.762C775.808 357.063 775.28 346.362 774.755 335.656C774.244 325.234 773.691 314.802 772.425 304.444C771.432 296.421 769.969 288.463 768.043 280.612C767.677 278.986 767.168 277.395 766.521 275.858L763.49 275.72L758.564 275.476Z" fill="black"/>
<path d="M689.058 284.472C682.537 283.537 675.707 283.058 669.516 285.323C663.602 287.503 658.878 291.98 654.623 296.691C651.722 299.727 649.323 303.206 647.517 306.996C643.89 315.334 645.305 324.947 647.517 333.774C653.549 358.084 665.527 381.533 684.749 397.581C690.601 402.334 696.83 406.602 703.376 410.342C711.886 415.33 720.673 419.913 730.087 422.795C732.715 423.603 735.512 424.284 738.204 423.71C740.895 423.135 743.438 420.955 743.523 418.201C728.098 409.534 714.269 398.336 700.536 387.191C696.771 384.288 693.246 381.087 689.994 377.62C685.122 372.143 681.686 365.528 676.962 359.924C672.707 354.894 667.389 350.651 664.197 344.898C662.194 340.968 660.854 336.736 660.229 332.37C658.655 323.469 658.357 314.015 661.889 305.688C665.421 297.361 673.516 290.523 682.558 290.672C687.196 290.747 691.611 292.586 695.887 294.384L722.8 305.741C722.471 305.592 724.343 300.924 724.258 300.275C724.002 298.244 723.641 298.212 722.13 296.67C719.556 294.097 715.556 292.289 712.29 290.789C704.889 287.582 697.065 285.454 689.058 284.472V284.472Z" fill="#6C63FF"/>
<path d="M635.486 220.665C643.165 218.96 650.271 215.296 656.113 210.031L650.485 239.552C656.091 236.98 661.527 234.053 666.761 230.79C667.516 244.295 666.42 258.109 661.442 270.679C656.464 283.249 647.283 294.501 634.965 300.084C645.9 301.913 655.719 294.065 665.452 288.758C672.239 285.068 683.834 288.864 691.26 286.631C697.557 284.781 704.025 283.164 709.705 279.857C720.258 273.7 722.651 255.717 724.79 243.7C726.928 231.683 724.981 219.24 721.428 207.543C720.246 203.4 718.645 199.388 716.652 195.568C713.911 190.552 710.16 186.159 705.635 182.666C701.11 179.174 695.91 176.657 690.362 175.276C684.815 173.895 679.041 173.679 673.406 174.642C667.771 175.605 662.397 177.726 657.623 180.871C647.815 187.326 638.72 196.823 631.231 205.83C630.167 207.075 625.774 211.499 627.231 213.36C629.008 215.614 639.433 209.191 641.198 208.319C640.688 210.244 637.518 220.166 635.486 220.665Z" fill="#FFD566"/>
<g opacity="0.1">
<path opacity="0.1" d="M679.75 564.617C678.086 564.954 676.366 564.896 674.729 564.447C663.089 561.449 651.019 560.478 639.05 561.575C634.667 561.979 629.657 562.468 626.412 559.448C623.965 557.204 623.327 553.631 622.912 550.335C616.37 498.226 629.827 446.042 639.933 394.561C641.294 387.616 640.805 376.365 638.762 369.58L638.284 367.932C634.346 353.873 634.579 338.972 638.954 325.043C631.696 341.208 630.323 359.401 635.071 376.471L635.55 378.12C637.592 384.904 638.082 396.198 636.72 403.1C626.646 454.582 613.189 506.797 619.7 558.874C620.115 562.171 620.763 565.744 623.199 567.988C626.391 570.976 631.454 570.487 635.837 570.115C647.807 569.017 659.876 569.988 671.516 572.986C673.153 573.435 674.873 573.493 676.537 573.156C681.771 571.976 682.654 567.711 682.526 563.489C681.676 564.03 680.736 564.412 679.75 564.617Z" fill="black"/>
<path opacity="0.1" d="M778.957 533.872C779.232 534.746 779.176 535.691 778.799 536.527C778.423 537.362 777.752 538.03 776.914 538.403C775.146 539.2 773.214 539.565 771.276 539.466L705.578 541.21C703.852 541.254 702.136 541.485 700.461 541.901C692.738 543.879 695.642 547.219 694.813 550.005C693.802 553.408 688.919 553.131 685.515 552.132C685.834 555.163 685.994 558.598 684.622 561.15C687.611 561.596 690.823 561.203 691.621 558.512C692.419 555.822 689.547 552.387 697.27 550.409C698.945 549.993 700.661 549.761 702.387 549.718L768.043 547.974C769.98 548.073 771.913 547.708 773.68 546.91C774.518 546.537 775.189 545.87 775.565 545.034C775.942 544.199 775.998 543.254 775.723 542.38C783.169 545.772 793.105 541.146 795.307 533.277C795.639 532.084 795.824 530.856 795.86 529.618C791.882 534.383 784.68 536.51 778.957 533.872Z" fill="black"/>
</g>
<path d="M690.823 311.654C696.474 323.665 701.471 335.973 705.791 348.524C709.28 358.637 712.354 369.261 711.195 379.896C710.035 390.53 703.748 401.271 693.536 404.621C689.196 406.046 684.547 406.056 679.984 406.163C669.053 406.419 658.146 407.3 647.315 408.8C642.275 409.634 637.193 410.198 632.093 410.491C624.88 410.725 617.668 409.598 610.477 410.183C598.839 411.129 587.787 416.563 576.106 416.563C574.682 416.651 573.257 416.388 571.958 415.798C569.83 414.649 568.883 412.161 568.16 409.864C566.532 404.674 565.256 398.719 568.011 394.029C571.405 388.254 579.117 387.095 585.808 386.585C600.871 385.521 615.952 384.777 631.05 384.351C643.932 383.99 657.889 383.501 667.878 375.355C668.552 374.873 669.102 374.239 669.484 373.504C669.861 372.259 669.816 370.925 669.356 369.708C665.397 354.242 663.699 338.284 664.314 322.331C664.246 320.9 664.617 319.483 665.378 318.269C666.282 317.295 667.456 316.614 668.75 316.312C677.668 313.451 687.217 313.186 696.281 315.546" fill="#FDA8A8"/>
<path d="M664.048 322.32C662.505 322.851 661.161 323.842 660.197 325.16C660.623 320.725 660.048 316.248 660.134 311.782C660.219 307.315 661.048 302.657 663.867 299.191C667.452 294.767 673.548 293.182 679.25 293.033C687.526 292.81 696.089 295.213 702.153 300.85C706.055 304.503 708.589 309.381 709.333 314.674C709.524 316.131 710.163 321.597 708.641 322.533C707.312 323.363 702.259 320.502 700.631 320.045C688.547 316.494 675.599 317.3 664.048 322.32Z" fill="#F75842"/>
<path opacity="0.1" d="M503.164 71.251C507.276 71.251 510.61 67.9182 510.61 63.8069C510.61 59.6956 507.276 56.3628 503.164 56.3628C499.051 56.3628 495.717 59.6956 495.717 63.8069C495.717 67.9182 499.051 71.251 503.164 71.251Z" fill="#7FFC00"/>
<path opacity="0.1" d="M553.161 214.817C557.273 214.817 560.607 211.484 560.607 207.372C560.607 203.261 557.273 199.928 553.161 199.928C549.048 199.928 545.714 203.261 545.714 207.372C545.714 211.484 549.048 214.817 553.161 214.817Z" fill="#7FFC00"/>
<path opacity="0.1" d="M411.679 78.6952C415.792 78.6952 419.126 75.3623 419.126 71.251C419.126 67.1397 415.792 63.8069 411.679 63.8069C407.567 63.8069 404.233 67.1397 404.233 71.251C404.233 75.3623 407.567 78.6952 411.679 78.6952Z" fill="#7FFC00"/>
<path opacity="0.1" d="M182.969 429.633C193.544 429.633 202.116 421.063 202.116 410.491C202.116 399.919 193.544 391.349 182.969 391.349C172.394 391.349 163.821 399.919 163.821 410.491C163.821 421.063 172.394 429.633 182.969 429.633Z" fill="#05FF00"/>
<path opacity="0.1" d="M954.202 113.789C958.315 113.789 961.649 110.456 961.649 106.345C961.649 102.234 958.315 98.9007 954.202 98.9007C950.09 98.9007 946.756 102.234 946.756 106.345C946.756 110.456 950.09 113.789 954.202 113.789Z" fill="#7FFC00"/>
<path opacity="0.1" d="M962.713 231.832C976.225 231.832 987.179 220.881 987.179 207.372C987.179 193.864 976.225 182.913 962.713 182.913C949.2 182.913 938.246 193.864 938.246 207.372C938.246 220.881 949.2 231.832 962.713 231.832Z" fill="#05FF00"/>
<path opacity="0.1" d="M1002.07 145.692C1006.18 145.692 1009.52 142.36 1009.52 138.248C1009.52 134.137 1006.18 130.804 1002.07 130.804C997.96 130.804 994.626 134.137 994.626 138.248C994.626 142.36 997.96 145.692 1002.07 145.692Z" fill="#7FFC00"/>
<path opacity="0.1" d="M936.118 281.814C940.231 281.814 943.565 278.481 943.565 274.37C943.565 270.258 940.231 266.926 936.118 266.926C932.006 266.926 928.672 270.258 928.672 274.37C928.672 278.481 932.006 281.814 936.118 281.814Z" fill="#6C63FF"/>
<path opacity="0.1" d="M488.271 130.804C492.383 130.804 495.717 127.471 495.717 123.36C495.717 119.249 492.383 115.916 488.271 115.916C484.158 115.916 480.824 119.249 480.824 123.36C480.824 127.471 484.158 130.804 488.271 130.804Z" fill="#7FFC00"/>
<path opacity="0.1" d="M209.563 507.265C213.675 507.265 217.009 503.932 217.009 499.821C217.009 495.709 213.675 492.377 209.563 492.377C205.45 492.377 202.116 495.709 202.116 499.821C202.116 503.932 205.45 507.265 209.563 507.265Z" fill="#7FFC00"/>
<path opacity="0.1" d="M197.861 337.113C201.974 337.113 205.308 333.78 205.308 329.669C205.308 325.558 201.974 322.225 197.861 322.225C193.749 322.225 190.415 325.558 190.415 329.669C190.415 333.78 193.749 337.113 197.861 337.113Z" fill="#6C63FF"/>
<path opacity="0.1" d="M606.349 63.8069C610.462 63.8069 613.796 60.474 613.796 56.3627C613.796 52.2515 610.462 48.9186 606.349 48.9186C602.237 48.9186 598.903 52.2515 598.903 56.3627C598.903 60.474 602.237 63.8069 606.349 63.8069Z" fill="#05FF00"/>
<path opacity="0.1" d="M630.816 130.804C634.929 130.804 638.262 127.471 638.262 123.36C638.262 119.249 634.929 115.916 630.816 115.916C626.703 115.916 623.37 119.249 623.37 123.36C623.37 127.471 626.703 130.804 630.816 130.804Z" fill="#05FF00"/>
<defs>
<linearGradient id="paint0_linear" x1="409.084" y1="749.338" x2="409.084" y2="174.406" gradientUnits="userSpaceOnUse">
<stop stop-color="#808080" stop-opacity="0.25"/>
<stop offset="0.54" stop-color="#808080" stop-opacity="0.12"/>
<stop offset="1" stop-color="#808080" stop-opacity="0.1"/>
</linearGradient>
<linearGradient id="paint1_linear" x1="191454" y1="453096" x2="191454" y2="142906" gradientUnits="userSpaceOnUse">
<stop stop-color="#808080" stop-opacity="0.25"/>
<stop offset="0.54" stop-color="#808080" stop-opacity="0.12"/>
<stop offset="1" stop-color="#808080" stop-opacity="0.1"/>
</linearGradient>
</defs>
</svg>
